<?xml version="1.0" encoding="UTF-8"?>
<svg version="1.1" xmlns="http://www.w3.org/2000/svg" width="3000" height="2100">
<path d="M0 0 C990 0 1980 0 3000 0 C3000 693 3000 1386 3000 2100 C2010 2100 1020 2100 0 2100 C0 1407 0 714 0 0 Z " fill="#A40035" transform="translate(0,0)"/>
<path d="M0 0 C2.44369387 0.01071689 4.8866505 0.00003597 7.33032227 -0.01269531 C49.09425601 -0.05289665 88.7903427 14.5929546 123.51196289 37.26074219 C123.84196289 37.59074219 124.17196289 37.92074219 124.51196289 38.26074219 C124.47259892 40.47118044 124.35243168 42.68025191 124.19946289 44.88574219 C124.12083008 46.09488281 124.04219727 47.30402344 123.96118164 48.54980469 C123.75306777 51.13834754 123.4471312 53.66252674 123.03320312 56.2277832 C121.23006312 67.6519804 121.17406082 78.96580519 121.19628906 90.51049805 C121.1994408 93.92431861 121.17594337 97.33726295 121.15063477 100.75097656 C121.11159125 114.20204543 122.0055738 127.0443775 124.51196289 140.26074219 C124.70540283 141.33412842 124.89884277 142.40751465 125.09814453 143.51342773 C125.58852424 146.10780611 126.12597236 148.68357176 126.69946289 151.26074219 C127.01246338 152.67238647 127.01246338 152.67238647 127.33178711 154.11254883 C134.97333681 187.5777367 146.36228263 220.0256374 160.51196289 251.26074219 C161.05191895 252.45876465 161.591875 253.65678711 162.14819336 254.89111328 C174.33263538 281.85177555 187.71466854 308.11662932 202.88354492 333.52685547 C205.53839345 337.98397599 208.15315441 342.46406713 210.76196289 346.94824219 C211.44319214 348.10694824 211.44319214 348.10694824 212.13818359 349.2890625 C214.22435272 352.87087673 216.11920666 356.33781215 217.51196289 360.26074219 C215.94179096 361.63014786 214.35530898 362.98087113 212.76196289 364.32324219 C211.88024414 365.07734375 210.99852539 365.83144531 210.09008789 366.60839844 C207.51196289 368.26074219 207.51196289 368.26074219 205.56103516 368.04223633 C203.23053446 367.15340841 201.95106544 366.12635989 200.14868164 364.40917969 C199.51639648 363.81234375 198.88411133 363.21550781 198.23266602 362.60058594 C197.56170898 361.9521875 196.89075195 361.30378906 196.19946289 360.63574219 C195.49885742 359.96929688 194.79825195 359.30285156 194.07641602 358.61621094 C188.53768664 353.3208876 183.1004032 347.92273836 177.73730469 342.44970703 C174.78881553 339.4565754 171.79091632 336.59583017 168.60571289 333.85449219 C163.41366883 329.37272775 158.67027965 324.46748002 153.86743164 319.57714844 C150.51893766 316.19192509 147.1553562 312.89628961 143.54321289 309.79199219 C138.13775678 305.1412802 133.21887489 300.01384723 128.22290039 294.93261719 C124.11684318 290.78422949 119.93386121 286.83774242 115.50805664 283.03417969 C111.08399181 279.10360154 107.01215845 274.79737118 102.86743164 270.57714844 C99.51893766 267.19192509 96.1553562 263.89628961 92.54321289 260.79199219 C87.13775678 256.1412802 82.21887489 251.01384723 77.22290039 245.93261719 C73.11684318 241.78422949 68.93386121 237.83774242 64.50805664 234.03417969 C60.08399181 230.10360154 56.01215845 225.79737118 51.86743164 221.57714844 C48.51893766 218.19192509 45.1553562 214.89628961 41.54321289 211.79199219 C36.13775678 207.1412802 31.21887489 202.01384723 26.22290039 196.93261719 C22.76997365 193.44409326 19.3141676 190.0300424 15.58618164 186.83496094 C10.56344781 182.51891842 5.96970731 177.78776691 1.32446289 173.07324219 C-0.41661603 171.30654032 -2.16002893 169.54213491 -3.90600586 167.78027344 C-5.04718872 166.62168823 -5.04718872 166.62168823 -6.21142578 165.43969727 C-8.53092169 163.21969716 -10.95249555 161.22804503 -13.48803711 159.26074219 C-7.80500988 166.17045995 -1.44796227 172.36939241 4.9140625 178.64233398 C10.06365308 183.72626966 15.10521536 188.83500125 19.81103516 194.3371582 C23.03469283 197.98280178 26.54141883 201.35228299 30.01196289 204.76074219 C34.13520863 208.81022682 38.21207989 212.84433167 41.98071289 217.22949219 C45.92383681 221.81252879 50.20306687 226.02414308 54.51196289 230.26074219 C59.44107007 235.10714623 64.201685 239.99071837 68.70727539 245.23339844 C72.1320612 249.08072276 75.84050815 252.65088904 79.51196289 256.26074219 C84.44107007 261.10714623 89.201685 265.99071837 93.70727539 271.23339844 C97.1320612 275.08072276 100.84050815 278.65088904 104.51196289 282.26074219 C109.45130116 287.11720565 114.2234743 292.01095995 118.73852539 297.26464844 C121.9938641 300.92869707 125.51648237 304.32779262 129.01196289 307.76074219 C133.13520863 311.81022682 137.21207989 315.84433167 140.98071289 320.22949219 C144.92383681 324.81252879 149.20306687 329.02414308 153.51196289 333.26074219 C158.44107007 338.10714623 163.201685 342.99071837 167.70727539 348.23339844 C171.1320612 352.08072276 174.84050815 355.65088904 178.51196289 359.26074219 C184.08621961 364.74147111 189.45623372 370.29465664 194.51196289 376.26074219 C191.83222041 379.1028933 189.09281346 381.72903835 186.01196289 384.13574219 C185.46540039 384.56628906 184.91883789 384.99683594 184.35571289 385.44042969 C181.71973943 386.61321449 180.28142175 386.01486251 177.51196289 385.26074219 C175.55275428 384.28295951 173.63178408 383.22687133 171.74243164 382.12011719 C170.61844971 381.46809326 169.49446777 380.81606934 168.33642578 380.14428711 C167.7439505 379.79659271 167.15147522 379.44889832 166.54104614 379.09066772 C163.39740497 377.24720049 160.23932252 375.42877994 157.08227539 373.60839844 C156.12331108 373.05452202 156.12331108 373.05452202 155.14497375 372.48945618 C146.29374009 367.38847238 137.30145537 362.54942494 128.2878418 357.74267578 C125.63307248 356.32539788 122.98449698 354.8970632 120.33618164 353.46777344 C85.64425655 334.87303515 49.48429258 320.4275999 12.06518555 308.41235352 C9.28229412 307.51040911 6.51933957 306.57313528 3.75805664 305.60839844 C-1.72340979 303.77624063 -7.35008953 302.56914268 -12.98803711 301.32324219 C-14.02573242 301.08412109 -15.06342773 300.845 -16.13256836 300.59863281 C-19.9067353 299.75820433 -23.69176235 298.99299772 -27.48803711 298.26074219 C-28.80147598 298.00349869 -28.80147598 298.00349869 -30.14144897 297.74105835 C-46.63962717 294.58462558 -62.53218179 293.72829347 -79.30053711 293.94824219 C-81.59024239 293.95978419 -83.87995729 293.96955413 -86.16967773 293.97753906 C-88.38648465 293.9909436 -90.60328306 294.00586112 -92.82006836 294.02246094 C-93.8171431 294.02984787 -94.81421783 294.0372348 -95.84150696 294.04484558 C-107.83834888 293.96971523 -107.83834888 293.96971523 -119.48803711 296.26074219 C-124.61873358 296.99444219 -124.61873358 296.99444219 -127.48803711 296.26074219 C-129.92787548 294.03507612 -131.32037341 291.34188642 -132.86303711 288.44824219 C-133.32508545 287.63291016 -133.78713379 286.81757812 -134.26318359 285.97753906 C-135.22578689 284.26405596 -136.17377363 282.54228711 -137.10766602 280.81298828 C-138.39246413 278.43745247 -139.71977846 276.09228492 -141.06225586 273.74902344 C-152.15840207 253.99199526 -159.77397565 232.38895871 -164.48803711 210.26074219 C-164.66447754 209.45024414 -164.84091797 208.63974609 -165.02270508 207.8046875 C-169.90490295 184.22110728 -169.69126597 156.75579159 -164.48803711 133.26074219 C-164.27123291 132.22844482 -164.27123291 132.22844482 -164.05004883 131.17529297 C-163.04819109 126.47887681 -161.84615385 121.86612874 -160.48803711 117.26074219 C-160.20500732 116.28669434 -160.20500732 116.28669434 -159.91625977 115.29296875 C-152.64115557 90.97112162 -138.9942849 69.47193955 -121.48803711 51.26074219 C-121.04524414 50.79216797 -120.60245117 50.32359375 -120.14624023 49.84082031 C-88.94448077 16.92703016 -45.08574967 -0.2342819 0 0 Z " fill="#CDAF57" transform="translate(1180.488037109375,557.7392578125)"/>
<path d="M0 0 C1.76787143 2.02259047 3.35251498 4.02833492 4.9375 6.1875 C15.42585144 19.99807333 27.63661142 32.94064394 41 44 C41.91265625 44.763125 42.8253125 45.52625 43.765625 46.3125 C60.40001019 59.93828996 78.8182361 71.39530519 97.64794922 81.7109375 C99.7952013 82.88775824 101.93130122 84.08259455 104.06640625 85.28125 C146.04604153 108.51381528 193.50847291 124.87431188 239.76269531 137.140625 C242.75569817 137.93514763 245.74556452 138.74066045 248.73452759 139.55023193 C252.07204566 140.4537721 255.41092109 141.35224783 258.75 142.25 C259.9757373 142.57967773 261.20147461 142.90935547 262.46435547 143.24902344 C270.27524158 145.32922944 278.11208675 147.23434372 286 149 C284.88306863 154.7877353 283.31002225 160.26822028 281.41796875 165.83984375 C281.18541382 166.53074097 280.95285889 167.22163818 280.71325684 167.93347168 C280.14423362 169.62301045 279.57240339 171.31160341 279 173 C241.62246474 173.80876812 204.24481534 174.61201195 166.86697388 175.4065094 C163.66359437 175.47461061 160.46021509 175.54272218 157.25683594 175.61083984 C156.47420214 175.62747944 155.69156835 175.64411904 154.88521838 175.66126287 C143.15975176 175.91062509 131.43435883 176.16322192 119.70899963 176.41759109 C110.68289235 176.61310825 101.65670814 176.80473916 92.63044739 176.99303818 C87.5955701 177.0981591 82.56074129 177.20484075 77.52600098 177.31634521 C48.01446314 177.96824977 18.51836208 178.09795019 -11 178 C-11 178.66 -11 179.32 -11 180 C-9.0990026 179.99340284 -9.0990026 179.99340284 -7.15960121 179.9866724 C22.95072952 179.89209936 53.03497017 180.13440681 83.13825274 180.7747848 C88.4843775 180.88740733 93.83062059 180.99414948 99.17684937 181.10169983 C108.12594542 181.28249623 117.07496062 181.46689345 126.02392578 181.65405273 C138.5020688 181.91501399 150.98034632 182.16903107 163.4586575 182.42180431 C173.33965455 182.62224379 183.22061004 182.82472011 193.1015625 183.02734375 C194.12569764 183.04831391 195.14983277 183.06928407 196.20500231 183.09088969 C223.8052771 183.65643913 251.40319977 184.2840724 279 185 C279.65482606 186.58959213 280.30496393 188.18111607 280.953125 189.7734375 C281.31567383 190.65950684 281.67822266 191.54557617 282.05175781 192.45849609 C283.10664713 195.28583848 283.68423628 198.00024462 284 201 C281.81383155 201.58344377 279.62762546 202.16674649 277.44140625 202.75 C276.7626796 202.93119385 276.08395294 203.1123877 275.38465881 203.29907227 C272.01785217 204.19737325 268.65023642 205.09220497 265.28076172 205.98046875 C215.66215105 219.06786976 166.21699067 234.66040045 120.46875 258.21875 C117.06432123 259.96697018 113.62914291 261.6390406 110.1875 263.3125 C75.86490132 280.51289114 42.39699333 304.05823545 18 334 C17.33339355 334.81186768 17.33339355 334.81186768 16.65332031 335.64013672 C10.73438056 342.86489267 4.97577052 350.08059834 0 358 C-47.25301404 350.26479308 -95.72336405 323.3475046 -125 285 C-125.80824219 284.00742188 -126.61648438 283.01484375 -127.44921875 281.9921875 C-134.02202106 273.86296781 -139.1236863 265.22782233 -144 256 C-144.55558594 254.98164062 -145.11117187 253.96328125 -145.68359375 252.9140625 C-165.49150327 215.35620809 -167.80599378 170.27797905 -155.83984375 129.98828125 C-153.1812831 121.67066225 -149.8955721 113.80889168 -146 106 C-145.68047363 105.34773437 -145.36094727 104.69546875 -145.03173828 104.0234375 C-128.3504871 70.16961088 -100.76317893 43.33272676 -68 25 C-67.30100586 24.60071289 -66.60201172 24.20142578 -65.88183594 23.79003906 C-47.37508495 13.27689138 -27.60588665 6.17457243 -7 1 C-5.86304688 0.690625 -5.86304688 0.690625 -4.703125 0.375 C-3 0 -3 0 0 0 Z " fill="#CDAF57" transform="translate(1048,871)"/>
<path d="M0 0 C0.6698291 0.22558594 1.3396582 0.45117188 2.02978516 0.68359375 C24.96921203 8.53143827 45.29409856 20.44267009 63 37 C63.54672363 37.50821289 64.09344727 38.01642578 64.65673828 38.54003906 C92.76239648 64.91862991 108.00753278 99.45884373 114 137 C114.1757959 137.92361328 114.3515918 138.84722656 114.53271484 139.79882812 C115.07811131 143.53510739 115.19849866 147.21668592 115.23828125 150.984375 C115.2480751 151.74906097 115.25786896 152.51374695 115.26795959 153.30160522 C115.52779985 178.92052816 113.421754 202.61084349 105 227 C104.73848145 227.77859375 104.47696289 228.5571875 104.20751953 229.359375 C97.92945555 247.93598563 89.51939522 265.45863216 79 282 C77.06215735 281.85879286 75.12473045 281.71187127 73.1875 281.5625 C72.10855469 281.48128906 71.02960938 281.40007812 69.91796875 281.31640625 C67 281 67 281 64 280 C56.14039792 279.03460449 48.24234575 278.82032314 40.33203125 278.76171875 C39.25410812 278.753647 38.176185 278.74557526 37.06559753 278.73725891 C34.7941544 278.723524 32.52269155 278.71275528 30.2512207 278.70483398 C27.98195114 278.693395 25.71270672 278.67307413 23.44360352 278.64331055 C6.89372571 278.42727991 -8.75471324 279.83715504 -25 283 C-26.00510117 283.1944722 -27.01020233 283.3889444 -28.04576111 283.58930969 C-95.45237388 296.77108227 -158.91285294 328.34388912 -217.7421875 362.87109375 C-218.6403418 363.39687012 -219.53849609 363.92264648 -220.46386719 364.46435547 C-222.82755165 365.89558143 -225.09706926 367.42157803 -227.3828125 368.97265625 C-229.81430063 370.48819615 -230.7158441 370.99284348 -233.63671875 371.06640625 C-236.67968563 369.69329888 -239.15378692 367.95555933 -241.8125 365.9375 C-242.78832031 365.20402344 -243.76414062 364.47054688 -244.76953125 363.71484375 C-245.50558594 363.14894531 -246.24164062 362.58304688 -247 362 C-245.58718023 360.3459671 -244.1734262 358.69272528 -242.75561523 357.04296875 C-241.65028282 355.75671904 -240.54781292 354.46799844 -239.44946289 353.17578125 C-234.16775824 347.03190534 -228.44571399 341.3879 -222.671875 335.7109375 C-218.5234873 331.60488029 -214.57700023 327.42189831 -210.7734375 322.99609375 C-206.84285935 318.57202892 -202.536629 314.50019556 -198.31640625 310.35546875 C-194.9311829 307.00697477 -191.63554742 303.64339331 -188.53125 300.03125 C-183.88053801 294.62579389 -178.75310504 289.706912 -173.671875 284.7109375 C-170.158686 281.23359736 -166.72274736 277.74997101 -163.5 274 C-158.86197988 268.60322543 -153.74247097 263.69645636 -148.671875 258.7109375 C-145.158686 255.23359736 -141.72274736 251.74997101 -138.5 248 C-133.86197988 242.60322543 -128.74247097 237.69645636 -123.671875 232.7109375 C-119.5234873 228.60488029 -115.57700023 224.42189831 -111.7734375 219.99609375 C-107.84285935 215.57202892 -103.536629 211.50019556 -99.31640625 207.35546875 C-95.9311829 204.00697477 -92.63554742 200.64339331 -89.53125 197.03125 C-84.88053801 191.62579389 -79.75310504 186.706912 -74.671875 181.7109375 C-71.22063427 178.29491351 -67.83848365 174.88084352 -64.68359375 171.1875 C-59.79047941 165.49369422 -54.38910726 160.28306104 -49.0625 155 C-47.98609346 153.92862113 -46.90991986 152.85700818 -45.83398438 151.78515625 C-43.22533255 149.18740362 -40.61355529 146.59282038 -38 144 C-47.48359737 151.53598451 -56.10128013 159.96673756 -64.57177734 168.60864258 C-67.58330038 171.66335189 -70.63686411 174.59387108 -73.890625 177.390625 C-78.49619079 181.36401066 -82.73752897 185.66479056 -87 190 C-91.85646346 194.93933826 -96.75021776 199.71151141 -102.00390625 204.2265625 C-105.66795488 207.48190121 -109.06705043 211.00451948 -112.5 214.5 C-116.54948464 218.62324574 -120.58358948 222.700117 -124.96875 226.46875 C-129.55178661 230.41187392 -133.76340089 234.69110398 -138 239 C-142.85646346 243.93933826 -147.75021776 248.71151141 -153.00390625 253.2265625 C-156.66795488 256.48190121 -160.06705043 260.00451948 -163.5 263.5 C-167.54948464 267.62324574 -171.58358948 271.700117 -175.96875 275.46875 C-180.55178661 279.41187392 -184.76340089 283.69110398 -189 288 C-193.85646346 292.93933826 -198.75021776 297.71151141 -204.00390625 302.2265625 C-207.66795488 305.48190121 -211.06705043 309.00451948 -214.5 312.5 C-218.54948464 316.62324574 -222.58358948 320.700117 -226.96875 324.46875 C-231.55178661 328.41187392 -235.76340089 332.69110398 -240 337 C-244.36927415 341.44383515 -248.75597883 345.87224691 -253.3125 350.125 C-253.92738281 350.70507812 -254.54226563 351.28515625 -255.17578125 351.8828125 C-257 353 -257 353 -259.08300781 352.78149414 C-261.67355707 351.72541312 -263.57874373 350.19366316 -265.75 348.4375 C-266.54921875 347.79683594 -267.3484375 347.15617187 -268.171875 346.49609375 C-268.77515625 346.00238281 -269.3784375 345.50867188 -270 345 C-268.61428973 341.30031247 -266.93333727 337.97426045 -264.9453125 334.5625 C-264.03289795 332.99036743 -264.03289795 332.99036743 -263.10205078 331.38647461 C-262.44962402 330.26893799 -261.79719727 329.15140137 -261.125 328 C-260.44075296 326.82002715 -259.75700278 325.63976606 -259.07373047 324.45922852 C-256.04225487 319.22373754 -252.9985139 313.99563386 -249.9375 308.77734375 C-218.05608012 254.12112573 -191.64070517 194.70642537 -178.1875 132.6875 C-177.9922876 131.80618408 -177.7970752 130.92486816 -177.59594727 130.0168457 C-174.20089982 113.48528798 -173.67019955 96.73956409 -173.73925781 79.91723633 C-173.75002715 76.80465393 -173.73926187 73.6926438 -173.7265625 70.58007812 C-173.72034588 60.1161643 -174.08850544 49.92968673 -175.57128906 39.56518555 C-176.00282059 35.97654378 -176.2252511 32.60902932 -176 29 C-173.82421875 26.91796875 -173.82421875 26.91796875 -170.6875 25.1875 C-169.82330444 24.70120117 -169.82330444 24.70120117 -168.94165039 24.20507812 C-167.6641517 23.49411069 -166.37906517 22.79665753 -165.08789062 22.11083984 C-162.91146895 20.952898 -160.76098863 19.75412247 -158.609375 18.55078125 C-142.5641678 9.7104467 -125.66260479 2.86444073 -108 -2 C-107.32936523 -2.18546387 -106.65873047 -2.37092773 -105.96777344 -2.56201172 C-72.0764834 -11.71857781 -33.26152508 -11.30811993 0 0 Z " fill="#CDAF57" transform="translate(1872,573)"/>
<path d="M0 0 C1.79244141 0.01740234 1.79244141 0.01740234 3.62109375 0.03515625 C5.41740234 0.04869141 5.41740234 0.04869141 7.25 0.0625 C8.17683594 0.07410156 9.10367187 0.08570313 10.05859375 0.09765625 C10.06797942 0.67516821 10.07736509 1.25268017 10.08703518 1.84769249 C10.31998356 16.17726934 10.55400161 30.50682848 10.78908443 44.83637047 C10.90276456 51.76720787 11.01613004 58.69805011 11.12866211 65.62890625 C11.58132437 93.49675531 12.04441741 121.36432448 12.59375 149.23046875 C12.62372731 150.77650347 12.62372731 150.77650347 12.65431023 152.35377121 C12.86393037 163.10644923 13.10644107 173.85201683 13.55859375 184.59765625 C15.09078401 222.4121191 15.21676453 260.25833788 15.05859375 298.09765625 C15.71859375 298.09765625 16.37859375 298.09765625 17.05859375 298.09765625 C17.05335693 296.84484863 17.04812012 295.59204102 17.04272461 294.30126953 C16.9511412 270.0828201 17.0009982 245.87440167 17.49609375 221.66015625 C17.52556595 220.17216522 17.52556595 220.17216522 17.55563354 218.65411377 C17.75382183 208.84822595 18.00944303 199.0477849 18.40406799 189.24772644 C19.23472991 168.54615641 19.59306229 147.83406886 19.99488068 127.12062073 C20.05909839 123.82173264 20.12423769 120.5228639 20.18963623 117.22399902 C20.9624422 78.18374489 21.58300152 39.14261829 22.05859375 0.09765625 C28.65859375 0.09765625 35.25859375 0.09765625 42.05859375 0.09765625 C42.69474609 2.711875 42.69474609 2.711875 43.34375 5.37890625 C47.19375722 21.07551675 51.31721273 36.64320656 56.05859375 52.09765625 C56.27644531 52.81070923 56.49429687 53.52376221 56.71875 54.25842285 C67.01236394 87.93126527 78.17561139 121.13780653 93.05859375 153.09765625 C93.54714844 154.15162598 94.03570313 155.2055957 94.5390625 156.29150391 C114.02053185 198.12783413 138.40732312 238.01298752 174.05859375 268.09765625 C175.09284432 268.98391261 176.12666265 269.87067353 177.16015625 270.7578125 C182.98799198 275.74380277 188.84640492 280.59077416 195.05859375 285.09765625 C191.5095503 323.01401913 169.85312032 361.07872937 145.05859375 389.09765625 C144.30964844 389.9690625 143.56070312 390.84046875 142.7890625 391.73828125 C124.52443802 412.66855362 101.62385872 427.59863131 76.05859375 438.09765625 C74.94355469 438.60296875 73.82851562 439.10828125 72.6796875 439.62890625 C68.43304075 441.35138648 64.18118055 442.53358849 59.74609375 443.66015625 C58.90377197 443.87704102 58.0614502 444.09392578 57.19360352 444.31738281 C14.26349713 455.256364 -30.02960535 448.56531321 -68.33544922 426.53491211 C-87.86453342 414.91877526 -104.82765446 399.85591302 -118.94140625 382.09765625 C-120.11703125 380.66486328 -120.11703125 380.66486328 -121.31640625 379.203125 C-139.6909832 356.26435024 -152.26796129 328.92274562 -159.94140625 300.66015625 C-160.16151367 299.8609375 -160.38162109 299.06171875 -160.60839844 298.23828125 C-162.29731822 291.68629093 -162.29731822 291.68629093 -160.94140625 288.09765625 C-158.8862433 286.43154871 -156.89068236 284.98349551 -154.69140625 283.53515625 C-147.35484884 278.49626541 -140.59860205 272.9972535 -133.94140625 267.09765625 C-133.40128906 266.62070313 -132.86117188 266.14375 -132.3046875 265.65234375 C-69.32198942 209.70096826 -37.10064803 122.64944937 -11.94140625 32.09765625 C-11.55133298 30.66261033 -11.16075968 29.22770017 -10.76953125 27.79296875 C-9.41057716 22.76483863 -8.09170377 17.72962416 -6.84765625 12.671875 C-6.57344849 11.55921265 -6.57344849 11.55921265 -6.29370117 10.42407227 C-5.94124072 8.98665215 -5.59228551 7.54836674 -5.24731445 6.10913086 C-3.78664242 0.12571854 -3.78664242 0.12571854 0 0 Z " fill="#CDAF57" transform="translate(1483.94140625,1215.90234375)"/>
<path d="M0 0 C2.37350934 1.13557448 4.65870367 2.32310294 6.93652344 3.63891602 C7.75846191 4.11151855 8.58040039 4.58412109 9.42724609 5.07104492 C10.74668213 5.83553955 10.74668213 5.83553955 12.09277344 6.61547852 C13.02782715 7.15221191 13.96288086 7.68894531 14.92626953 8.24194336 C19.43391156 10.83060265 23.93116072 13.43568193 28.41308594 16.06860352 C85.81119647 49.60437951 149.71968154 79.3032018 215.84765625 89.79785156 C217.71636783 90.09916552 219.58050757 90.42997776 221.43945312 90.78662109 C232.64324015 92.73409377 243.86823059 92.50745272 255.20654297 92.44628906 C258.71687075 92.42798322 262.22693399 92.42578036 265.73730469 92.42602539 C268.00423401 92.42111004 270.27116158 92.41528164 272.53808594 92.40844727 C274.08545944 92.40677803 274.08545944 92.40677803 275.66409302 92.40507507 C284.65305012 92.34743781 293.70655379 92.01342097 302.53027344 90.17797852 C305.96347385 89.468554 309.08963157 88.86918399 312.59277344 89.24047852 C314.20458984 90.86645508 314.20458984 90.86645508 315.56933594 93.13110352 C316.32585449 94.36957031 316.32585449 94.36957031 317.09765625 95.63305664 C317.59104492 96.49350586 318.08443359 97.35395508 318.59277344 98.24047852 C319.04749023 99.02358398 319.50220703 99.80668945 319.97070312 100.61352539 C329.54886359 117.58055251 336.74530846 135.37466886 341.59277344 154.24047852 C341.94082031 155.49860352 342.28886719 156.75672852 342.64746094 158.05297852 C346.68284376 172.90922449 347.93915153 187.68125389 347.85351562 203.02490234 C347.84275912 205.30601446 347.85351516 207.58634243 347.86621094 209.86743164 C347.88010484 223.05238972 346.8976572 236.05874575 343.28027344 248.80297852 C343.06081055 249.59833008 342.84134766 250.39368164 342.61523438 251.21313477 C341.95778009 253.56078268 341.27946264 255.90123571 340.59277344 258.24047852 C340.40344238 258.89902832 340.21411133 259.55757812 340.01904297 260.23608398 C333.10461557 283.92771256 320.31965499 305.18825804 303.59277344 323.24047852 C303.06989746 323.80718262 302.54702148 324.37388672 302.00830078 324.95776367 C278.30928942 350.33606725 247.84603212 365.8132425 214.21777344 373.49047852 C213.14849609 373.73556152 213.14849609 373.73556152 212.05761719 373.9855957 C200.97893671 376.38665908 189.87757634 376.44404039 178.59277344 376.42797852 C177.81209503 376.42737427 177.03141663 376.42677002 176.2270813 376.42614746 C164.89890152 376.40230754 153.77857972 376.19516992 142.59277344 374.24047852 C141.9227832 374.12752441 141.25279297 374.01457031 140.5625 373.89819336 C110.51651525 368.64682448 81.89368726 356.03704234 56.59277344 339.24047852 C56.80172241 337.53492798 56.80172241 337.53492798 57.01489258 335.79492188 C58.66616369 321.46080226 59.03190549 307.22326853 59.03027344 292.80297852 C59.0323732 291.01923828 59.0323732 291.01923828 59.03451538 289.19946289 C59.01795453 272.06603697 58.28430356 255.84907135 54.28076172 239.13110352 C53.60991582 236.31250327 53.0253786 233.48890961 52.46386719 230.64672852 C38.80209712 163.38182087 4.86500915 96.46121013 -31.31738281 38.55688477 C-31.74937988 37.85990479 -32.18137695 37.1629248 -32.62646484 36.44482422 C-33.4087296 35.18990851 -34.20182508 33.94164372 -35.00830078 32.70214844 C-36.4122741 30.45370769 -37.39763636 28.76985766 -37.44628906 26.08422852 C-35.92925148 23.39234227 -33.90914486 22.17845006 -31.34472656 20.49047852 C-29.96607422 19.57008789 -29.96607422 19.57008789 -28.55957031 18.63110352 C-27.84929687 18.17219727 -27.13902344 17.71329102 -26.40722656 17.24047852 C-24.06262726 19.22829097 -21.73087914 21.22833008 -19.40722656 23.24047852 C-18.71628906 23.83602539 -18.02535156 24.43157227 -17.31347656 25.04516602 C-10.81115172 30.76810261 -4.71875802 36.86095161 1.35205078 43.03662109 C4.6686293 46.39383447 8.00683555 49.65389572 11.58496094 52.73266602 C16.75276457 57.18014757 21.46309167 62.06289726 26.23730469 66.92407227 C29.58579867 70.30929561 32.94938013 73.6049311 36.56152344 76.70922852 C41.96697954 81.35994051 46.88586143 86.48737348 51.88183594 91.56860352 C55.98789315 95.71699122 60.17087512 99.66347828 64.59667969 103.46704102 C69.02074452 107.39761916 73.09257787 111.70384952 77.23730469 115.92407227 C80.58579867 119.30929561 83.94938013 122.6049311 87.56152344 125.70922852 C92.96697954 130.35994051 97.88586143 135.48737348 102.88183594 140.56860352 C106.98789315 144.71699122 111.17087512 148.66347828 115.59667969 152.46704102 C120.02074452 156.39761916 124.09257787 160.70384952 128.23730469 164.92407227 C131.58579867 168.30929561 134.94938013 171.6049311 138.56152344 174.70922852 C143.96697954 179.35994051 148.88586143 184.48737348 153.88183594 189.56860352 C157.35109083 193.07362392 160.82510633 196.50133293 164.56933594 199.71313477 C170.17863781 204.53123863 175.25289322 209.89142546 180.40917969 215.18383789 C181.56353516 216.35462891 181.56353516 216.35462891 182.74121094 217.54907227 C183.4339209 218.25862061 184.12663086 218.96816895 184.84033203 219.69921875 C186.45411076 221.46061627 186.45411076 221.46061627 188.59277344 221.24047852 C187.93269287 220.58563477 187.2726123 219.93079102 186.5925293 219.25610352 C184.10980878 216.79057725 181.62947152 214.32270017 179.15063477 211.85327148 C178.08385047 210.79146991 177.0161649 209.73057294 175.94750977 208.6706543 C170.54885197 203.31498347 165.23687083 197.94861574 160.29418945 192.16235352 C156.91319661 188.34327249 153.22828935 184.81499584 149.59277344 181.24047852 C144.66366626 176.39407448 139.90305133 171.51050233 135.39746094 166.26782227 C131.97267513 162.42049795 128.26422817 158.85033166 124.59277344 155.24047852 C119.65343517 150.38401505 114.88126203 145.49026075 110.36621094 140.23657227 C107.11087223 136.57252363 103.58825396 133.17342808 100.09277344 129.74047852 C95.9695277 125.69099388 91.89265643 121.65688903 88.12402344 117.27172852 C84.18089951 112.68869191 79.90166946 108.47707763 75.59277344 104.24047852 C70.66366626 99.39407448 65.90305133 94.51050233 61.39746094 89.26782227 C57.97267513 85.42049795 54.26422817 81.85033166 50.59277344 78.24047852 C45.65343517 73.38401505 40.88126203 68.49026075 36.36621094 63.23657227 C33.11087223 59.57252363 29.58825396 56.17342808 26.09277344 52.74047852 C21.9695277 48.69099388 17.89265643 44.65688903 14.12402344 40.27172852 C10.18089951 35.68869191 5.90166946 31.47707763 1.59277344 27.24047852 C-2.86312853 22.85934 -7.29709598 18.46193969 -11.53222656 13.86547852 C-12.11230469 13.23899414 -12.69238281 12.61250977 -13.29003906 11.96704102 C-13.65871094 11.39727539 -14.02738281 10.82750977 -14.40722656 10.24047852 C-13.12290813 6.38752322 -11.37943986 5.35325404 -8.15722656 2.92797852 C-7.20332031 2.1893457 -6.24941406 1.45071289 -5.26660156 0.68969727 C-2.40722656 -0.75952148 -2.40722656 -0.75952148 0 0 Z " fill="#CDAF57" transform="translate(1639.4072265625,1155.759521484375)"/>
<path d="M0 0 C3.41262161 3.2840456 6.46881995 6.75148555 9.48828125 10.39453125 C10.24625 11.26464844 11.00421875 12.13476562 11.78515625 13.03125 C31.00571566 35.38559627 44.4433058 62.21973958 53.55078125 90.14453125 C53.83783936 91.01239258 54.12489746 91.88025391 54.4206543 92.77441406 C56.28145636 98.75979284 58.1435972 105.08497421 57.48828125 111.39453125 C55.35652263 114.03144594 54.17391254 115.12512846 51.42578125 116.83203125 C50.1200629 117.7479854 48.8167418 118.66736476 47.515625 119.58984375 C46.8438623 120.05036133 46.17209961 120.51087891 45.47998047 120.98535156 C42.32906335 123.21470847 39.40760576 125.6856454 36.48828125 128.20703125 C35.91561523 128.69993652 35.34294922 129.1928418 34.75292969 129.70068359 C24.38604018 138.74198035 14.9120415 148.51319691 6.48828125 159.39453125 C5.71355469 160.36390625 4.93882812 161.33328125 4.140625 162.33203125 C-29.85214811 205.42904946 -51.99748747 256.89013191 -69.63671875 308.45703125 C-69.94296173 309.34926392 -70.24920471 310.24149658 -70.56472778 311.1607666 C-74.54239639 322.8110496 -77.99968668 334.53756676 -81.16821289 346.43212891 C-82.23081911 350.40486486 -83.38552701 354.33599749 -84.625 358.2578125 C-86.94330304 365.62289215 -88.81131219 373.09830261 -90.69921875 380.58203125 C-91.23110979 382.68573621 -91.76397541 384.78917376 -92.29963684 386.891922 C-92.77795196 388.77002309 -93.25272853 390.64902434 -93.72729492 392.52807617 C-94.51171875 395.39453125 -94.51171875 395.39453125 -95.51171875 397.39453125 C-101.78171875 397.39453125 -108.05171875 397.39453125 -114.51171875 397.39453125 C-114.55659424 394.42557861 -114.60146973 391.45662598 -114.64770508 388.39770508 C-114.8563693 374.67563008 -115.0725503 360.95367517 -115.29187107 347.2317667 C-115.32411069 345.21379497 -115.35626626 343.19582191 -115.3884201 341.17784882 C-115.92533215 307.53537308 -116.53633036 273.8956819 -117.3125 240.2578125 C-117.34692501 238.76165836 -117.38134948 237.26550421 -117.41577339 235.76935005 C-117.73271689 222.01495763 -118.05576847 208.2607253 -118.3946436 194.50685483 C-119.16714261 163.13089443 -119.74236303 131.78118506 -119.51171875 100.39453125 C-120.17171875 100.39453125 -120.83171875 100.39453125 -121.51171875 100.39453125 C-121.50451813 101.3744101 -121.4973175 102.35428894 -121.48989868 103.36386108 C-121.28526853 134.4529809 -121.91430955 165.50819394 -122.68002319 196.58609009 C-123.02017732 210.39438371 -123.34154527 224.20312273 -123.65926242 238.01194882 C-123.6937297 239.50994008 -123.72824593 241.00793021 -123.76281095 242.50591922 C-124.5367723 276.06576673 -125.13230862 309.62788071 -125.66711521 343.19230556 C-125.69931848 345.21329024 -125.7316065 347.23427355 -125.76390839 349.25525665 C-126.02018137 365.30157662 -126.26917665 381.34799809 -126.51171875 397.39453125 C-132.45171875 397.39453125 -138.39171875 397.39453125 -144.51171875 397.39453125 C-145.96768592 393.75461332 -146.98329752 390.75030311 -147.80859375 386.9921875 C-148.04191406 385.94812744 -148.27523438 384.90406738 -148.515625 383.82836914 C-148.88494141 382.15955688 -148.88494141 382.15955688 -149.26171875 380.45703125 C-153.13407691 363.35451344 -157.71439179 346.55471018 -163.09375 329.8671875 C-164.19661574 326.42927356 -165.21822641 322.97678929 -166.19921875 319.50244141 C-183.77470087 257.54581564 -211.33505905 192.76420656 -254.51171875 144.39453125 C-254.97852051 143.87133301 -255.44532227 143.34813477 -255.92626953 142.80908203 C-265.79840307 131.80005543 -275.8771561 121.28382245 -288.140625 112.8828125 C-288.74302002 112.45726074 -289.34541504 112.03170898 -289.96606445 111.59326172 C-291.13903071 110.76939446 -292.32882056 109.96884261 -293.53588867 109.19580078 C-295.15234375 108.046875 -295.15234375 108.046875 -297.51171875 105.39453125 C-297.58005059 102.24101693 -297.33435967 100.35886442 -296.51171875 97.39453125 C-296.27743164 96.54689209 -296.04314453 95.69925293 -295.80175781 94.82592773 C-294.933454 91.90843726 -293.98794583 89.0276769 -293.01171875 86.14453125 C-292.6564209 85.09185059 -292.30112305 84.03916992 -291.93505859 82.95458984 C-282.29379025 55.03236571 -267.98921456 30.50734135 -248.51171875 8.39453125 C-248.0729541 7.89260254 -247.63418945 7.39067383 -247.18212891 6.87353516 C-232.61041091 -9.74486418 -215.17789652 -22.63223009 -195.51171875 -32.60546875 C-194.86493164 -32.93772461 -194.21814453 -33.26998047 -193.55175781 -33.61230469 C-127.50494252 -67.20300669 -52.75821284 -48.5793445 0 0 Z " fill="#CDAF57" transform="translate(1620.51171875,485.60546875)"/>
<path d="M0 0 C30.67910349 3.41347168 62.84130234 20.3388568 87 39 C87.92683594 39.71542969 88.85367187 40.43085937 89.80859375 41.16796875 C101.38735854 50.3940092 111.93715424 60.2747229 121 72 C121.66257812 72.78503906 122.32515625 73.57007813 123.0078125 74.37890625 C144.14308692 99.53402699 157.98042744 135.11878509 159 168 C159.02578125 168.70995117 159.0515625 169.41990234 159.078125 170.15136719 C159.98021663 198.26279769 154.64186352 225.79434622 142 251 C141.50862549 251.99700928 141.50862549 251.99700928 141.00732422 253.01416016 C130.67186584 273.83441836 115.91611027 293.15061131 98 308 C97.12988281 308.75796875 96.25976562 309.5159375 95.36328125 310.296875 C72.74049115 329.74824593 45.39483324 343.70622519 16.875 352.1875 C15.86163574 352.49131592 14.84827148 352.79513184 13.80419922 353.1081543 C12.85561035 353.37539307 11.90702148 353.64263184 10.9296875 353.91796875 C9.68034424 354.27024536 9.68034424 354.27024536 8.40576172 354.62963867 C5.58695812 355.06358682 3.71162753 354.88110396 1 354 C-0.51049805 352.59228516 -0.51049805 352.59228516 -1.76171875 350.7890625 C-2.23585205 350.12648438 -2.70998535 349.46390625 -3.19848633 348.78125 C-3.68986084 348.0696875 -4.18123535 347.358125 -4.6875 346.625 C-9.08700656 340.50015668 -13.62227258 334.86420112 -18.7890625 329.36328125 C-20.66833263 327.35452078 -22.43246402 325.30334287 -24.1875 323.1875 C-41.47230438 303.38706681 -64.382718 287.1034938 -87 274 C-87.8446582 273.50806152 -88.68931641 273.01612305 -89.55957031 272.50927734 C-133.99511319 246.76463421 -181.84586204 228.49770923 -231 214 C-231.92167969 213.72639648 -232.84335938 213.45279297 -233.79296875 213.17089844 C-245.12222027 209.82208007 -256.52862328 206.75154158 -267.9375 203.6875 C-268.92349686 203.42161575 -268.92349686 203.42161575 -269.92941284 203.15036011 C-271.81538538 202.64269044 -273.70259654 202.13962914 -275.58984375 201.63671875 C-276.68159912 201.34498779 -277.77335449 201.05325684 -278.89819336 200.75268555 C-281.92067923 200.01924801 -284.9265891 199.47023447 -288 199 C-287.54705135 197.24859857 -287.08741252 195.49892656 -286.625 193.75 C-286.36976562 192.77546875 -286.11453125 191.8009375 -285.8515625 190.796875 C-285.10102453 188.33180535 -284.1804112 186.27559415 -283 184 C-281.75451417 183.97515313 -280.50902834 183.95030626 -279.22580051 183.92470646 C-249.46061121 183.33086385 -219.69544105 182.73607088 -189.93029321 182.14015398 C-186.24283558 182.06632957 -182.5553778 181.99251296 -178.86791992 181.91870117 C-177.7670574 181.89666503 -177.7670574 181.89666503 -176.64395522 181.87418371 C-164.86055277 181.63833187 -153.07713789 181.40310681 -141.29371805 181.16812576 C-129.14474325 180.9258405 -116.99578263 180.68285304 -104.84683412 180.43925327 C-98.04747102 180.30293767 -91.24810196 180.16693738 -84.44871712 180.03170967 C-53.96389868 179.42520076 -23.48083376 178.78347805 7 178 C-22.77081813 177.37427512 -52.54165229 176.74931561 -82.3125 176.125 C-83.95226232 176.09061168 -83.95226232 176.09061168 -85.62515116 176.05552864 C-165.53083802 174.37911385 -165.53083802 174.37911385 -245.4375 172.75 C-246.45782444 172.72950844 -247.47814888 172.70901688 -248.52939224 172.68790436 C-260.01956808 172.45725537 -271.50976543 172.22770487 -283 172 C-283.86524753 169.56592995 -284.71742865 167.12856816 -285.5625 164.6875 C-285.80935547 163.99720703 -286.05621094 163.30691406 -286.31054688 162.59570312 C-288.11328125 157.33984375 -288.11328125 157.33984375 -287 154 C-285.07324219 153.26391602 -285.07324219 153.26391602 -282.546875 152.75390625 C-281.62463135 152.55869385 -280.7023877 152.36348145 -279.75219727 152.16235352 C-278.76147217 151.96440186 -277.77074707 151.7664502 -276.75 151.5625 C-274.71145011 151.12869347 -272.67367837 150.69121339 -270.63671875 150.25 C-269.65364746 150.03730469 -268.67057617 149.82460938 -267.65771484 149.60546875 C-263.52420745 148.66379152 -259.53464519 147.37950387 -255.5078125 146.06640625 C-252.79656285 145.2421622 -250.11639818 144.51364829 -247.3671875 143.83984375 C-228.88509442 139.30122488 -210.9773647 133.19792884 -193 127 C-191.81519043 126.59346191 -190.63038086 126.18692383 -189.40966797 125.76806641 C-162.09150583 116.34532752 -135.80982244 104.93751996 -110 92 C-109.14986328 91.5762207 -108.29972656 91.15244141 -107.42382812 90.71582031 C-90.07963926 82.01405233 -73.49568229 71.6763567 -58 60 C-57.44328613 59.5860498 -56.88657227 59.17209961 -56.31298828 58.74560547 C-34.54926428 42.49560602 -15.08515294 22.62772941 0 0 Z " fill="#CDAF57" transform="translate(1956,872)"/>
<path d="M0 0 C2.41235348 1.66717623 4.76666638 3.3309466 7.05078125 5.171875 C7.84097656 5.80351563 8.63117188 6.43515625 9.4453125 7.0859375 C10.03699219 7.56804687 10.62867188 8.05015625 11.23828125 8.546875 C9.95829284 11.33029401 8.60205434 13.46023997 6.5078125 15.69140625 C5.68518921 16.57203735 5.68518921 16.57203735 4.84594727 17.47045898 C4.25354248 18.09380127 3.6611377 18.71714355 3.05078125 19.359375 C2.43581787 20.01301025 1.82085449 20.66664551 1.18725586 21.34008789 C-3.94107285 26.75854051 -9.19373081 32.04930666 -14.5222168 37.27075195 C-17.522892 40.22747641 -20.39385413 43.230558 -23.140625 46.42578125 C-27.82762627 51.85631463 -32.9780672 56.80992901 -38.08984375 61.8359375 C-42.23823145 65.94199471 -46.18471852 70.12497669 -49.98828125 74.55078125 C-53.9188594 78.97484608 -58.22508975 83.04667944 -62.4453125 87.19140625 C-65.83053585 90.53990023 -69.12617133 93.90348169 -72.23046875 97.515625 C-76.88118074 102.92108111 -82.00861371 107.839963 -87.08984375 112.8359375 C-90.60303275 116.31327764 -94.03897139 119.79690399 -97.26171875 123.546875 C-101.89973887 128.94364957 -107.01924778 133.85041864 -112.08984375 138.8359375 C-115.60303275 142.31327764 -119.03897139 145.79690399 -122.26171875 149.546875 C-126.89973887 154.94364957 -132.01924778 159.85041864 -137.08984375 164.8359375 C-141.23823145 168.94199471 -145.18471852 173.12497669 -148.98828125 177.55078125 C-152.9188594 181.97484608 -157.22508975 186.04667944 -161.4453125 190.19140625 C-164.82016697 193.52964385 -168.10646502 196.88155039 -171.19921875 200.484375 C-176.05627563 206.12966282 -181.43037204 211.26025731 -186.734375 216.48046875 C-191.07685465 220.78112677 -195.24430428 225.14570046 -199.22509766 229.78320312 C-201.28169456 232.14368231 -203.46898546 234.35095299 -205.69921875 236.546875 C-206.47136719 237.31 -207.24351562 238.073125 -208.0390625 238.859375 C-208.60753906 239.41625 -209.17601562 239.973125 -209.76171875 240.546875 C-204.30154432 235.99904943 -199.26079204 231.16385713 -194.265625 226.11328125 C-193.47324936 225.31711899 -192.68087372 224.52095673 -191.86448669 223.70066833 C-188.50210239 220.32206292 -185.14571863 216.93751965 -181.78881836 213.5534668 C-179.32485144 211.07131032 -176.85780808 208.59224034 -174.390625 206.11328125 C-173.27150475 204.98171349 -173.27150475 204.98171349 -172.129776 203.82728577 C-168.05831969 199.73708713 -163.88917464 195.84284148 -159.51646423 192.07676697 C-157.35871655 190.1955136 -155.33043181 188.21328478 -153.32421875 186.171875 C-152.57398438 185.41390625 -151.82375 184.6559375 -151.05078125 183.875 C-150.29539062 183.10671875 -149.54 182.3384375 -148.76171875 181.546875 C-143.90525529 176.60753674 -139.01150099 171.83536359 -133.7578125 167.3203125 C-130.09376387 164.06497379 -126.69466832 160.54235552 -123.26171875 157.046875 C-119.21223411 152.92362926 -115.17812927 148.846758 -110.79296875 145.078125 C-106.20993214 141.13500108 -101.99831786 136.85577102 -97.76171875 132.546875 C-92.90525529 127.60753674 -88.01150099 122.83536359 -82.7578125 118.3203125 C-79.09376387 115.06497379 -75.69466832 111.54235552 -72.26171875 108.046875 C-68.21223411 103.92362926 -64.17812927 99.846758 -59.79296875 96.078125 C-55.20993214 92.13500108 -50.99831786 87.85577102 -46.76171875 83.546875 C-41.90525529 78.60753674 -37.01150099 73.83536359 -31.7578125 69.3203125 C-28.09376387 66.06497379 -24.69466832 62.54235552 -21.26171875 59.046875 C-17.21223411 54.92362926 -13.17812927 50.846758 -8.79296875 47.078125 C-4.20993214 43.13500108 0.00168214 38.85577102 4.23828125 34.546875 C18.74323175 19.79439975 18.74323175 19.79439975 23.23828125 17.546875 C28.68328125 21.506875 28.68328125 21.506875 34.23828125 25.546875 C33.41523863 29.66208809 33.00095749 31.34949921 30.9375 34.671875 C30.46143311 35.44917969 29.98536621 36.22648437 29.49487305 37.02734375 C28.97707275 37.85878906 28.45927246 38.69023438 27.92578125 39.546875 C26.81990115 41.35833007 25.71578497 43.17086299 24.61328125 44.984375 C24.04867188 45.91121094 23.4840625 46.83804687 22.90234375 47.79296875 C-3.95832021 92.24547602 -27.05422396 139.3350717 -43.76171875 188.546875 C-44.04595703 189.37509766 -44.33019531 190.20332031 -44.62304688 191.05664062 C-50.77622573 209.13067683 -55.01528925 227.83970372 -58.76171875 246.546875 C-59.05175781 247.97966797 -59.05175781 247.97966797 -59.34765625 249.44140625 C-61.31161772 259.61700374 -61.92068677 269.72511005 -61.96484375 280.07421875 C-61.97054382 281.14321915 -61.9762439 282.21221954 -61.9821167 283.31361389 C-61.99150308 285.56494172 -61.99807512 287.8162829 -62.00195312 290.06762695 C-62.01160458 293.44442902 -62.04266811 296.82060717 -62.07421875 300.19726562 C-62.13131388 312.26303694 -61.52521172 323.80906814 -59.40917969 335.69750977 C-58.76171875 339.546875 -58.76171875 339.546875 -58.76171875 343.546875 C-84.5047354 358.43927231 -111.23640556 369.83506045 -140.76171875 374.546875 C-141.75953369 374.72275146 -142.75734863 374.89862793 -143.78540039 375.07983398 C-153.03198441 376.58949405 -162.08346092 376.88712208 -171.43676758 376.86254883 C-173.92899898 376.85940054 -176.42002445 376.88290651 -178.91210938 376.90820312 C-193.99314828 376.96844448 -208.83565779 375.17903985 -223.32421875 370.859375 C-224.18934082 370.60591309 -225.05446289 370.35245117 -225.94580078 370.09130859 C-234.91915291 367.35715067 -243.35175723 363.67244158 -251.76171875 359.546875 C-252.73915039 359.07942871 -252.73915039 359.07942871 -253.73632812 358.60253906 C-268.33218544 351.5724243 -281.09893542 341.74546795 -292.76171875 330.546875 C-294.09783203 329.28810547 -294.09783203 329.28810547 -295.4609375 328.00390625 C-327.63098915 296.91067641 -343.43722685 253.12491668 -344.28295898 208.95117188 C-344.78398248 167.08168346 -332.86900139 125.61705601 -309.76171875 90.546875 C-309.1790625 90.60746094 -308.59640625 90.66804688 -307.99609375 90.73046875 C-297.41710871 91.81165433 -286.90801326 92.70359106 -276.26953125 92.8203125 C-275.21316467 92.83284058 -274.1567981 92.84536865 -273.06842041 92.85827637 C-251.28805958 93.06674673 -230.2502849 93.12574538 -208.91943359 88.26025391 C-205.83084757 87.56249232 -202.73638011 86.9577429 -199.625 86.37109375 C-136.5236086 73.86807822 -71.35512384 42.15025604 -17.203125 8.06640625 C-16.29119385 7.49881592 -15.3792627 6.93122559 -14.43969727 6.34643555 C-12.69659925 5.25646296 -10.963323 4.15056999 -9.24194336 3.02661133 C-3.48431329 -0.57168365 -3.48431329 -0.57168365 0 0 Z " fill="#CDAF57" transform="translate(1363.76171875,1155.453125)"/>
<path d="M0 0 C7.28484142 0.71049688 14.26869814 2.33961743 21.375 4.0625 C22.65503906 4.37268066 23.93507813 4.68286133 25.25390625 5.00244141 C36.88281568 7.85921387 48.29243267 11.31249798 59.69580078 14.95849609 C63.06817826 16.02149021 66.45108996 17.04129387 69.83984375 18.05078125 C99.69906192 26.99508261 128.61362474 38.15338996 157 51 C157.93779297 51.42265137 158.87558594 51.84530273 159.84179688 52.28076172 C190.86198076 66.34657061 220.63165288 84.1810901 245.47265625 107.625 C247.61823606 109.64124811 249.80596643 111.54873146 252.0625 113.4375 C259.93396932 120.3006406 266.65691741 128.39570755 273.125 136.5625 C273.59848877 137.15812744 274.07197754 137.75375488 274.55981445 138.36743164 C276.53350896 140.90202106 277.97599875 142.92799624 279 146 C276.58474366 146.48734233 274.16814327 146.96486291 271.75 147.4375 C271.08742188 147.57220703 270.42484375 147.70691406 269.7421875 147.84570312 C201.48879311 161.04565204 128.46207325 132.50354882 68 104 C66.97132812 103.51917969 65.94265625 103.03835938 64.8828125 102.54296875 C49.9461811 95.55410048 35.3627526 88.10129512 21 80 C20.43591431 79.68230652 19.87182861 79.36461304 19.29064941 79.03729248 C14.95907725 76.5970428 10.63405886 74.14543355 6.3125 71.6875 C5.72649017 71.35488159 5.14048035 71.02226318 4.53671265 70.67956543 C-3.11723716 66.3288283 -10.61999218 61.80132767 -18 57 C-15.969295 49.29882546 -13.69927222 41.70273608 -11.25 34.125 C-10.90582031 33.05451416 -10.56164063 31.98402832 -10.20703125 30.88110352 C-6.87946366 20.56244439 -3.4576487 10.27569972 0 0 Z " fill="#CDAF57" transform="translate(1663,1085)"/>
<path d="M0 0 C4.88431978 1.5749822 8.43499413 4.40535368 12.4375 7.5 C13.14487305 8.02956299 13.85224609 8.55912598 14.58105469 9.10473633 C17.96335609 11.638433 21.27128134 14.20283772 24.45703125 16.98046875 C34.01639386 25.00711251 42.75810267 25.41873693 55 25 C53.08502339 42.61778485 47.45238115 59.60089331 42.12109375 76.42480469 C40.96166229 80.1222599 39.83699416 83.8289558 38.71875 87.5390625 C29.75251067 117.16493901 19.04399549 145.92016205 6 174 C5.2116288 175.72758599 4.42383132 177.45543395 3.63671875 179.18359375 C-10.03151421 208.91567793 -27.31197626 236.47160813 -49 261 C-49.71905518 261.81380127 -49.71905518 261.81380127 -50.45263672 262.64404297 C-60.15316381 273.54714118 -70.56645797 283.2737194 -82.125 292.1875 C-83.24588013 293.05375 -83.24588013 293.05375 -84.3894043 293.9375 C-85.088479 294.46730469 -85.78755371 294.99710938 -86.5078125 295.54296875 C-87.13316895 296.01758545 -87.75852539 296.49220215 -88.40283203 296.98120117 C-90 298 -90 298 -92 298 C-95.33746647 274.99574309 -96.10729591 252.61158841 -93.30322266 229.51220703 C-93.10452855 227.86602156 -92.91631033 226.21853009 -92.73974609 224.56982422 C-88.56521088 185.64680375 -74.61746483 147.64134229 -59 112 C-58.56252441 110.99807617 -58.12504883 109.99615234 -57.67431641 108.96386719 C-45.93581444 82.2801607 -32.72084376 56.15719772 -18 31 C-16.74180052 28.83616247 -15.48400275 26.67209132 -14.2265625 24.5078125 C-11.82315629 20.3762209 -9.41313675 16.24862719 -6.99609375 12.125 C-4.63708703 8.09825439 -2.30507717 4.05783757 0 0 Z " fill="#CDAF57" transform="translate(1410,1191)"/>
<path d="M0 0 C1.06447357 -0.00250763 1.06447357 -0.00250763 2.15045166 -0.00506592 C11.88329216 -0.00643693 21.4555023 0.40393715 31.125 1.625 C32.62885254 1.81400879 32.62885254 1.81400879 34.16308594 2.00683594 C40.97038189 2.97038189 40.97038189 2.97038189 43.25 5.25 C17.99667843 38.85109315 -13.85760219 63.4885576 -50.75 83.25 C-51.61866699 83.72050781 -52.48733398 84.19101562 -53.38232422 84.67578125 C-95.63552864 107.5161656 -142.02292968 124.12309547 -188.375 136.6875 C-189.09880859 136.88577393 -189.82261719 137.08404785 -190.56835938 137.28833008 C-192.12632828 137.71479942 -193.68460297 138.14015308 -195.24316406 138.56445312 C-197.97418012 139.31130676 -200.70198669 140.0692564 -203.4296875 140.828125 C-205.36974101 141.36476649 -207.30984446 141.9012275 -209.25 142.4375 C-210.59312256 142.81249634 -210.59312256 142.81249634 -211.96337891 143.19506836 C-226.71779751 147.25 -226.71779751 147.25 -233.75 147.25 C-237.3275242 137.78161379 -240.46972903 128.17110869 -243.60595703 118.55004883 C-244.50650433 115.79258381 -245.41533696 113.03793054 -246.32421875 110.28320312 C-246.89894892 108.52360446 -247.47318573 106.76384456 -248.046875 105.00390625 C-248.31868591 104.18410782 -248.59049683 103.36430939 -248.87054443 102.51966858 C-249.11790344 101.75464523 -249.36526245 100.98962189 -249.62011719 100.20141602 C-249.83899597 99.53288101 -250.05787476 98.86434601 -250.28338623 98.17555237 C-250.75 96.25 -250.75 96.25 -250.75 92.25 C-242.66209132 87.56680689 -234.56631594 82.89746877 -226.46508789 78.23736572 C-224.88548354 77.32799705 -223.30694891 76.41677092 -221.72851562 75.50537109 C-169.70732045 45.50358578 -114.53049895 20.11790547 -55.72631836 6.92016602 C-53.93759924 6.5174071 -52.15105974 6.1044878 -50.36938477 5.67163086 C-43.95537432 4.13735595 -37.48587587 3.41339035 -30.9375 2.6875 C-28.7223918 2.43853971 -26.5075347 2.18733226 -24.29296875 1.93359375 C-23.32383545 1.82587646 -22.35470215 1.71815918 -21.35620117 1.60717773 C-18.84124258 1.32024916 -18.84124258 1.32024916 -16.81274414 0.7199707 C-11.39095021 -0.51531789 -5.54228219 0.00679957 0 0 Z " fill="#CDAF57" transform="translate(1896.75,864.75)"/>
<path d="M0 0 C14.65814976 6.60459162 28.83888572 22.87106429 39 35 C39.433125 35.51014648 39.86625 36.02029297 40.3125 36.54589844 C54.18286267 52.96879313 65.67982218 71.17869489 76 90 C76.48178711 90.87849609 76.96357422 91.75699219 77.45996094 92.66210938 C93.60912591 122.35471849 105.93023446 153.75893114 116.875 185.6875 C117.28162872 186.87090469 117.28162872 186.87090469 117.69647217 188.07821655 C122.72930104 202.77005058 127.2215727 217.5753885 131.0625 232.625 C131.57001227 234.59122335 132.07782501 236.55736917 132.5859375 238.5234375 C132.82666992 239.45768555 133.06740234 240.39193359 133.31542969 241.35449219 C134.25639148 244.99081956 135.21923207 248.6208431 136.1875 252.25 C136.49558594 253.40886719 136.80367187 254.56773437 137.12109375 255.76171875 C137.69986597 257.89417285 138.29582279 260.0220487 138.91015625 262.14453125 C139.18730469 263.10746094 139.46445313 264.07039063 139.75 265.0625 C139.99234375 265.87847656 140.2346875 266.69445312 140.484375 267.53515625 C141.08472698 270.40502063 141.08487079 273.07620116 141 276 C139.60201172 275.93425781 139.60201172 275.93425781 138.17578125 275.8671875 C127.9112586 275.88794488 122.58288229 278.64575368 114.86914062 285.42333984 C111.21364638 288.50682755 107.312835 291.26453063 103.4375 294.0625 C102.66301514 294.63452148 101.88853027 295.20654297 101.09057617 295.79589844 C100.35814697 296.32860352 99.62571777 296.86130859 98.87109375 297.41015625 C98.22068115 297.88590088 97.57026855 298.36164551 96.90014648 298.85180664 C94.9295648 300.04256158 93.24989632 300.56726755 91 301 C82.82248967 288.28147942 75.32829408 275.22326004 68 262 C67.21302734 260.58485107 67.21302734 260.58485107 66.41015625 259.14111328 C40.48552907 212.39112319 18.40290403 163.89920579 5 112 C4.75314453 111.0615625 4.50628906 110.123125 4.25195312 109.15625 C-4.61747463 74.95612969 -9.29170218 34.66819972 0 0 Z " fill="#CDAF57" transform="translate(1319,607)"/>
<path d="M0 0 C2.16020284 3.24030425 3.20091869 6.15240128 4.4609375 9.8359375 C4.80869736 10.84873276 4.80869736 10.84873276 5.16348267 11.88198853 C5.65465866 13.31531869 6.14373232 14.74937075 6.63085938 16.18408203 C7.3610853 18.33403199 8.09788899 20.48163089 8.8359375 22.62890625 C12.60652604 33.63795413 16.33247908 44.66303609 19 56 C-2.80438969 69.22079323 -24.8578368 81.69425557 -47.58203125 93.25732422 C-50.62299047 94.807779 -53.65623922 96.37211083 -56.6875 97.94140625 C-89.38048884 114.73979418 -123.71502638 127.77952488 -159 138 C-160.010625 138.29390625 -161.02125 138.5878125 -162.0625 138.890625 C-186.43502772 145.83548505 -211.3004071 149.47175255 -236.625 149.4375 C-237.76284439 149.43783234 -237.76284439 149.43783234 -238.92367554 149.43817139 C-267.65180328 149.34819672 -267.65180328 149.34819672 -272 145 C-266.19920776 137.19850067 -260.17608899 129.80151193 -253.5234375 122.7109375 C-251.42580917 120.45744824 -249.4194089 118.16659836 -247.4375 115.8125 C-243.34570181 111.10984095 -238.714322 107.06500361 -234 103 C-232.60587891 101.79150391 -232.60587891 101.79150391 -231.18359375 100.55859375 C-209.50421878 82.11236126 -184.71462499 67.46589749 -159.16650391 55.05664062 C-156.92113609 53.96153674 -154.68544466 52.84801267 -152.44921875 51.734375 C-120.68029066 36.08675366 -86.99426088 23.79121061 -53 14 C-51.13456543 13.46028564 -51.13456543 13.46028564 -49.23144531 12.90966797 C-32.91458156 8.19896354 -16.57766626 3.71504007 0 0 Z " fill="#CDAF57" transform="translate(1336,1086)"/>
<path d="M0 0 C5.40333988 30.07215945 3.55552405 59.16394352 -2 89 C-2.20866699 90.13421387 -2.41733398 91.26842773 -2.63232422 92.43701172 C-6.46503237 112.51527997 -13.20722786 131.76762994 -20 151 C-20.36883301 152.04559082 -20.73766602 153.09118164 -21.11767578 154.16845703 C-23.26450569 160.17466028 -25.57689977 166.10023175 -28 172 C-28.4223291 173.03495605 -28.8446582 174.06991211 -29.27978516 175.13623047 C-41.60181489 205.06854823 -55.99321033 234.37052257 -72.40087891 262.27685547 C-74.20220543 265.34433578 -75.98249322 268.42355716 -77.76171875 271.50390625 C-88.05713283 289.28332462 -88.05713283 289.28332462 -92 295 C-96.27488435 293.524808 -99.69531405 291.27433034 -103.3125 288.625 C-103.91642578 288.19453369 -104.52035156 287.76406738 -105.14257812 287.32055664 C-108.52252476 284.89154433 -111.78614826 282.37587234 -114.98046875 279.70703125 C-123.63829352 272.59513386 -129.36940438 269.05501411 -141 270 C-125.48686563 190.02545636 -93.55709446 92.49233535 -36.3671875 32.484375 C-34.38077937 30.39962983 -32.5258046 28.27578215 -30.6875 26.0625 C-8.04570313 0 -8.04570313 0 0 0 Z " fill="#CDAF57" transform="translate(1682,613)"/>
<path d="M0 0 C3.39325761 3.09786242 5.70943012 6.49761424 8 10.4375 C8.38317383 11.08726807 8.76634766 11.73703613 9.16113281 12.40649414 C10.44910035 14.59956833 11.72548823 16.79908099 13 19 C13.45439453 19.78117187 13.90878906 20.56234375 14.37695312 21.3671875 C52.2675696 86.6203537 88.2019465 157.91460952 96 234 C96.13148438 235.20914062 96.26296875 236.41828125 96.3984375 237.6640625 C100.25399485 280.49201031 100.25399485 280.49201031 94 293 C54.74489971 275.31264447 25.88524007 220.86829679 8.06542969 184.18847656 C7.33375188 182.68555267 6.59715305 181.18501758 5.85644531 179.68652344 C-6.07847581 155.53321459 -15.55655984 130.5635961 -24 105 C-24.21696533 104.34461243 -24.43393066 103.68922485 -24.6574707 103.01397705 C-29.8075321 87.446746 -34.84931738 71.86854668 -39 56 C-39.44482814 54.3253921 -39.89016319 52.65091878 -40.3359375 50.9765625 C-41.38253741 47.03211674 -42.42647387 43.0870831 -43.44677734 39.13574219 C-43.82075816 37.69197157 -44.20147824 36.24993246 -44.58837891 34.80957031 C-45.48881606 31.38648614 -46 28.56770407 -46 25 C-44.90558594 25.11794922 -44.90558594 25.11794922 -43.7890625 25.23828125 C-32.41208801 25.50514855 -25.8245886 19.57247633 -17.26757812 12.78076172 C-13.70782166 9.98523377 -10.03926226 7.34349314 -6.375 4.6875 C-5.13202152 3.77581701 -3.88975076 2.86316774 -2.6484375 1.94921875 C-1.77445313 1.30597656 -0.90046875 0.66273437 0 0 Z " fill="#CDAF57" transform="translate(1588,1191)"/>
<path d="M0 0 C2.10582557 0.40577529 4.21405354 0.76375002 6.33105469 1.10595703 C26.07135652 4.32995767 45.23689624 8.89981881 64.15136719 15.41455078 C65.1173584 15.74438965 66.08334961 16.07422852 67.07861328 16.4140625 C93.41830196 25.46631469 118.81011844 36.35766126 143.73681641 48.72265625 C146.98477806 50.33200662 150.24063204 51.92410494 153.49902344 53.51220703 C167.35358523 60.30224253 180.80948138 67.67023486 194.15136719 75.41455078 C195.25335449 76.05376465 196.3553418 76.69297852 197.49072266 77.3515625 C204.38701955 81.35652742 211.27363212 85.37779805 218.15136719 89.41455078 C217.52501703 95.14920916 216.0575927 100.31174257 214.24511719 105.77783203 C213.81797424 107.08762276 213.81797424 107.08762276 213.38220215 108.4238739 C212.78304888 110.25766749 212.18115427 112.09056745 211.57666016 113.92260742 C210.64913802 116.7338071 209.72960656 119.54752156 208.81152344 122.36181641 C208.22734638 124.14647172 207.64272659 125.93098218 207.05761719 127.71533203 C206.7815564 128.55800125 206.50549561 129.40067047 206.22106934 130.26887512 C205.96410278 131.0469603 205.70713623 131.82504547 205.44238281 132.62670898 C205.21667603 133.31175003 204.99096924 133.99679108 204.75842285 134.70259094 C204.15136719 136.41455078 204.15136719 136.41455078 203.15136719 138.41455078 C194.45941269 136.99864139 185.97903557 134.95536317 177.46386719 132.72705078 C176.78374573 132.54992554 176.10362427 132.37280029 175.40289307 132.19030762 C130.37470033 120.44815777 86.49563629 105.77235672 44.15136719 86.41455078 C43.28592285 86.02170898 42.42047852 85.62886719 41.52880859 85.22412109 C16.44318852 73.79454939 -8.60211361 60.08607428 -29.84863281 42.41455078 C-30.89420089 41.56037819 -31.93977395 40.7062117 -32.98535156 39.85205078 C-45.03012857 29.91406183 -56.79696541 19.39510958 -66.84863281 7.41455078 C-67.58726563 6.55990234 -68.32589844 5.70525391 -69.08691406 4.82470703 C-70.84863281 2.41455078 -70.84863281 2.41455078 -70.84863281 -0.58544922 C-47.51378558 -3.5285831 -23.17827361 -4.53043823 0 0 Z " fill="#CDAF57" transform="translate(1135.8486328125,867.58544921875)"/>
<path d="M0 0 C9.78923077 5.20170393 15.75961065 12.8533786 19.94921875 23.08984375 C22.9019495 34.11248118 21.52352413 45.25796522 16.51171875 55.38671875 C10.922114 65.01111866 2.59955477 71.06252667 -7.95703125 74.62109375 C-19.53692755 77.09949961 -30.2064478 75.95361792 -40.375 69.875 C-41.65248504 69.03081398 -42.92404529 68.1775435 -44.1875 67.3125 C-45.05375 66.735 -45.92 66.1575 -46.8125 65.5625 C-50.33130265 62.22889749 -52.76240602 58.49163456 -55.1875 54.3125 C-55.60644531 53.59449219 -56.02539062 52.87648438 -56.45703125 52.13671875 C-60.69768082 43.46061946 -60.53196445 32.5574976 -58.52734375 23.24609375 C-55.04317884 13.60807912 -47.52114567 4.59496524 -38.40625 -0.12890625 C-25.2709994 -6.19531804 -13.21495667 -6.16369247 0 0 Z " fill="#CDAE57" transform="translate(1519.1875,909.6875)"/>
<path d="M0 0 C5.56241939 3.96391681 9.14869361 8.50844599 12.4765625 14.42578125 C12.89035156 15.06644531 13.30414062 15.70710938 13.73046875 16.3671875 C18.34979915 24.59184894 17.73080892 35.85846295 15.7109375 44.82421875 C13.98016467 49.83796545 11.7017554 54.19271556 8.4765625 58.42578125 C7.9196875 59.25078125 7.3628125 60.07578125 6.7890625 60.92578125 C-0.56882256 68.88025159 -10.6646333 73.42464472 -21.44287109 73.89868164 C-33.46405786 74.05525894 -42.77959099 70.77218019 -51.5234375 62.42578125 C-59.92596713 53.61667761 -64.30137534 43.58109461 -64.11743164 31.36694336 C-63.51978109 20.27247261 -58.2001637 10.86264578 -50.3046875 3.30078125 C-35.39206032 -9.53540417 -16.52629125 -10.30974516 0 0 Z " fill="#CDAE57" transform="translate(1418.5234375,1016.57421875)"/>
<path d="M0 0 C1.16595703 0.65355469 1.16595703 0.65355469 2.35546875 1.3203125 C12.84442646 7.75072879 18.16109792 16.48329377 22 28 C22.9678576 41.52749806 20.02811058 53.16412497 11.375 63.75 C4.46332841 71.13203109 -4.73134455 75.38159681 -14.76171875 76.37109375 C-26.98571772 76.57786786 -36.44535656 73.98391421 -46.03515625 65.9375 C-54.69800976 57.3952031 -58.3605449 46.83755671 -58.5 34.875 C-58.4352009 28.17242906 -57.73456448 22.72974277 -54 17 C-53.34 15.9275 -52.68 14.855 -52 13.75 C-47.06998055 6.97122325 -42.27326794 3.14883594 -35 -1 C-34.37351562 -1.36738281 -33.74703125 -1.73476563 -33.1015625 -2.11328125 C-23.38276311 -6.7527986 -9.10833373 -5.20938448 0 0 Z " fill="#CDAE57" transform="translate(1623,1014)"/>
<path d="M0 0 C0.886875 0.66 1.77375 1.32 2.6875 2 C3.49316406 2.59296875 4.29882812 3.1859375 5.12890625 3.796875 C12.0972845 9.79712742 17.22593251 19.27266249 17.96484375 28.44140625 C18.32259721 42.62275323 15.4326993 52.43688095 5.875 63.00390625 C-0.83132997 69.47272037 -10.00168505 73.47297274 -19.3125 74 C-19.99570313 74.05027344 -20.67890625 74.10054687 -21.3828125 74.15234375 C-31.42996036 74.5899373 -40.34112356 70.99155746 -48.3125 65 C-58.08548238 55.9010164 -62.25063687 45.98987105 -62.75 32.75 C-62.57138529 21.51960039 -58.23353787 11.96846923 -50.3125 4 C-35.19708835 -8.0290187 -16.64178729 -10.04787157 0 0 Z " fill="#CDAE57" transform="translate(1522.3125,1121)"/>
<path d="M0 0 C8.77289575 5.30160606 13.92915283 12.58433349 17.171875 22.3125 C18.0139112 32.15466083 17.15177788 40.00340176 11.1484375 48.01171875 C4.67268301 55.58150002 -1.7157902 60.32109463 -11.828125 61.3125 C-23.11947024 61.4371897 -30.67439793 58.95452147 -39 51.3828125 C-46.39180136 43.0117554 -47.64832828 32.99530831 -47.06347656 22.28613281 C-46.27496112 15.67372738 -42.11714573 10.17133677 -37.828125 5.3125 C-35.13671875 3.328125 -35.13671875 3.328125 -32.265625 1.5625 C-31.31558594 0.96953125 -30.36554688 0.3765625 -29.38671875 -0.234375 C-21.21796402 -4.87372883 -8.32702825 -4.02379889 0 0 Z " fill="#CDAE57" transform="translate(1611.828125,1096.6875)"/>
<path d="M0 0 C1.40046144 0.74570025 2.7770653 1.53808116 4.125 2.375 C4.82238281 2.79910156 5.51976562 3.22320313 6.23828125 3.66015625 C12.90593613 8.16804345 17.68435898 14.68698079 20.125 22.375 C20.36617773 25.01112868 20.50618917 27.49150983 20.5 30.125 C20.49838867 30.8351123 20.49677734 31.54522461 20.49511719 32.27685547 C20.35788096 38.16590426 19.1863419 42.40834741 16.125 47.375 C15.58875 48.40625 15.0525 49.4375 14.5 50.5 C8.46643587 57.80378816 0.9142679 61.78042654 -8.48828125 62.74609375 C-16.91520094 62.89736897 -22.84724382 62.13958046 -29.875 57.375 C-30.9475 56.653125 -32.02 55.93125 -33.125 55.1875 C-39.51018187 48.65720036 -44.13764245 40.41205462 -44.25 31.1875 C-44.03012062 20.9110321 -40.60685766 14.01896045 -33.48046875 6.6484375 C-24.01468832 -1.61105907 -11.99156433 -4.87092803 0 0 Z " fill="#CDAE57" transform="translate(1414.875,943.625)"/>
<path d="M0 0 C8.18384066 5.49242877 12.52199409 12.45270102 15.625 21.76171875 C16.58333246 31.80578012 14.22872457 40.5293712 8.3515625 48.72265625 C2.45528112 55.68613788 -4.72622383 59.23091728 -13.7421875 60.078125 C-21.23714219 60.32795682 -26.94040658 59.67395155 -33.375 55.76171875 C-33.99890625 55.41109375 -34.6228125 55.06046875 -35.265625 54.69921875 C-42.13033285 50.40131471 -46.28855189 43.47496809 -48.375 35.76171875 C-49.55173686 25.1484575 -48.78354334 16.64118498 -42.375 7.76171875 C-31.27440328 -5.09382945 -14.97016005 -8.54015779 0 0 Z " fill="#CDAE57" transform="translate(1613.375,946.23828125)"/>
<path d="M0 0 C6.99612587 4.16652394 13.4750155 10.49820985 15.75390625 18.54296875 C17.0791912 28.76238829 17.62085511 39.35956957 11.1484375 47.80859375 C4.64135232 55.4574673 -1.69253855 60.25371089 -11.89453125 61.25390625 C-19.63417304 61.33937469 -26.46717185 60.78077334 -32.89453125 56.25390625 C-33.65636719 55.71894531 -34.41820312 55.18398437 -35.203125 54.6328125 C-42.00686059 49.2590903 -45.93196114 42.98343856 -47.17236328 34.31152344 C-48.17072651 23.88751034 -46.20498755 16.2442406 -40.0703125 7.71875 C-37.69969208 5.0331818 -35.37720304 3.37658332 -32.33203125 1.50390625 C-31.38199219 0.9109375 -30.43195313 0.31796875 -29.453125 -0.29296875 C-21.20668975 -4.97644037 -8.38947008 -4.03312883 0 0 Z " fill="#CDAE57" transform="translate(1415.89453125,1096.74609375)"/>
<path d="M0 0 C6.62095909 3.79112013 12.44491218 9.65649048 14.6875 17.0625 C15.59047458 26.87795097 15.11085022 34.9720151 8.9375 42.8125 C4.13016521 48.05034238 -1.40304053 50.76880908 -8.484375 51.30078125 C-17.65564506 51.49101502 -23.11882123 50.68431348 -30.0625 44.6875 C-36.48169367 37.19844072 -38.86493094 31.22493439 -38.6875 21.421875 C-37.9303893 14.63942501 -35.00606685 9.29170369 -30 4.6875 C-28.79513114 3.77933332 -27.56546703 2.90306488 -26.3125 2.0625 C-25.72855469 1.65 -25.14460938 1.2375 -24.54296875 0.8125 C-17.13179898 -3.68100925 -7.79585482 -3.45948565 0 0 Z " fill="#CDAE57" transform="translate(1471.3125,984.9375)"/>
<path d="M0 0 C6.08783978 4.18248534 9.69953795 9.43185762 12.046875 16.40625 C13.28728893 25.51807571 11.47280872 32.10045242 6.234375 39.59375 C2.18790203 44.75924759 -2.51346984 47.97521552 -8.953125 49.40625 C-18.96972881 50.49501128 -25.92240481 48.43082615 -33.765625 42.15625 C-39.80603407 34.56259288 -41.80117738 28.98513587 -41.43359375 19.0703125 C-40.51028919 12.0291769 -37.78239824 6.785346 -32.578125 1.96875 C-22.82056298 -5.37542781 -10.700845 -6.29461471 0 0 Z " fill="#CDAE57" transform="translate(1554.953125,1067.59375)"/>
<path d="M0 0 C6.90761583 4.09167334 11.41191583 9.23124733 13.734375 17.02734375 C14.79171226 25.09061492 14.78334302 32.33380337 10.1484375 39.234375 C5.29825529 45.38419167 0.08543351 48.57699091 -7.265625 51.02734375 C-16.56733508 51.95751476 -22.91138948 50.04181449 -30.515625 44.77734375 C-36.56678697 38.72618178 -39.34815809 32.92887908 -39.640625 24.40234375 C-39.57370586 16.57280425 -36.83276723 11.0552551 -31.828125 5.15234375 C-22.80544959 -2.32987488 -11.16265736 -5.17584754 0 0 Z " fill="#CDAE57" transform="translate(1472.265625,1065.97265625)"/>
<path d="M0 0 C6.15412439 4.13010126 10.11745466 9.45962945 11.63671875 16.76953125 C12.68317891 25.17609456 11.6148188 31.81943021 6.63671875 38.76953125 C1.51016912 44.45378084 -3.88572787 48.28295951 -11.5625 49.1171875 C-20.56421266 49.49671917 -27.328692 48.1734607 -34.203125 42.16015625 C-40.87115277 35.05194082 -41.96412654 27.66252658 -41.69921875 18.10546875 C-40.8789389 9.95989908 -36.8321276 5.58155283 -30.64453125 0.46875 C-20.83869893 -6.83525181 -10.27522009 -5.73531893 0 0 Z " fill="#CDAE57" transform="translate(1555.36328125,987.23046875)"/>
<path d="M0 0 C5.57756618 3.12343706 10.11383529 6.45047878 12.125 12.75 C13.09039532 19.61503339 13.28129856 25.86472544 9.5 31.875 C5.84970093 36.5067474 2.01069252 39.58356275 -3.875 40.75 C-10.92592511 41.41786713 -17.14844496 41.27622909 -22.875 36.75 C-28.96822703 30.01818149 -30.29841376 25.38058253 -30.21484375 16.30859375 C-29.65473759 10.44357403 -27.46997812 7.00995906 -23.08984375 3.1953125 C-16.41580491 -1.82084408 -7.89770744 -3.20083297 0 0 Z " fill="#CDAD57" transform="translate(1508.875,1030.25)"/>
<path d="M0 0 C0.99 0.33 1.98 0.66 3 1 C-4.59 8.59 -12.18 16.18 -20 24 C-20.66 23.67 -21.32 23.34 -22 23 C-21.58226318 22.5875 -21.16452637 22.175 -20.73413086 21.75 C-10.02244898 11.19838025 -10.02244898 11.19838025 0 0 Z " fill="#B85746" transform="translate(1175,1373)"/>
<path d="M0 0 C0 3 0 3 -1.46875 4.80932617 C-2.1390625 5.46392822 -2.809375 6.11853027 -3.5 6.79296875 C-4.221875 7.50517578 -4.94375 8.21738281 -5.6875 8.95117188 C-6.450625 9.68916016 -7.21375 10.42714844 -8 11.1875 C-9.1446875 12.31188477 -9.1446875 12.31188477 -10.3125 13.45898438 C-12.20180839 15.31286823 -14.09775206 17.15941069 -16 19 C-16.66 18.34 -17.32 17.68 -18 17 C-12.52817321 11.41417682 -6.93615794 6.08813538 -1 1 C-0.67 0.67 -0.34 0.34 0 0 Z " fill="#AE2D3E" transform="translate(1834,715)"/>
<path d="M0 0 C5.91712679 4.15457839 11.01139933 8.77258334 16 14 C15.34 14.66 14.68 15.32 14 16 C11.65861457 13.71643754 9.32833018 11.42186626 7 9.125 C5.99839844 8.14853516 5.99839844 8.14853516 4.9765625 7.15234375 C4.34492187 6.52714844 3.71328125 5.90195312 3.0625 5.2578125 C2.47597656 4.6817627 1.88945313 4.10571289 1.28515625 3.51220703 C0 2 0 2 0 0 Z " fill="#B0343F" transform="translate(1166,716)"/>
<path d="M0 0 C0.99 0.33 1.98 0.66 3 1 C-0.63 4.63 -4.26 8.26 -8 12 C-8.99 11.67 -9.98 11.34 -11 11 C-7.37 7.37 -3.74 3.74 0 0 Z " fill="#A81138" transform="translate(1187,1361)"/>
<path d="M0 0 C-1.39332574 3.36720387 -2.9789286 4.9859524 -6 7 C-6 4 -6 4 -4.125 1.8125 C-2 0 -2 0 0 0 Z " fill="#A91839" transform="translate(1823,727)"/>
<path d="M0 0 C3.36720387 1.39332574 4.9859524 2.9789286 7 6 C4 6 4 6 1.8125 4.125 C0 2 0 2 0 0 Z " fill="#AB1E3B" transform="translate(1175,725)"/>
<path d="M0 0 C0.99 0.33 1.98 0.66 3 1 C1.37660195 2.70884005 -0.29319053 4.37446717 -2 6 C-2.66 6 -3.32 6 -4 6 C-2.84826645 3.53199953 -1.95216435 1.95216435 0 0 Z " fill="#AE2E3E" transform="translate(1175,1373)"/>
</svg>
