<?xml version="1.0" encoding="UTF-8"?>
<svg version="1.1" xmlns="http://www.w3.org/2000/svg" width="1260" height="1261">
<path d="M0 0 C415.8 0 831.6 0 1260 0 C1260 416.13 1260 832.26 1260 1261 C844.2 1261 428.4 1261 0 1261 C0 844.87 0 428.74 0 0 Z " fill="#A40335" transform="translate(0,0)"/>
<path d="M0 0 C0.33 0 0.66 0 1 0 C1 203.28 1 406.56 1 616 C-414.8 616 -830.6 616 -1259 616 C-1259 413.05 -1259 210.1 -1259 1 C-1258.67 1 -1258.34 1 -1258 1 C-1257.85304688 2.26070312 -1257.70609375 3.52140625 -1257.5546875 4.8203125 C-1251.33633597 54.72137838 -1225.73737956 100.47495185 -1186.125 131.75 C-1183.78015761 133.54352727 -1181.40012196 135.28132443 -1179 137 C-1178.34370605 137.47356934 -1177.68741211 137.94713867 -1177.01123047 138.43505859 C-1153.32535638 155.34081643 -1126.4655173 167.93342007 -1098.28271484 175.20068359 C-1096.17454909 175.74949844 -1094.08466764 176.36776473 -1092 177 C-1091.67 177.66 -1091.34 178.32 -1091 179 C-1091.73754883 180.75805664 -1091.73754883 180.75805664 -1092.95703125 182.91015625 C-1093.40554443 183.72291016 -1093.85405762 184.53566406 -1094.31616211 185.37304688 C-1094.80995361 186.26056641 -1095.30374512 187.14808594 -1095.8125 188.0625 C-1108.06851225 210.7475167 -1115.95455365 234.78360935 -1121 260 C-1121.19198975 260.92538574 -1121.38397949 261.85077148 -1121.58178711 262.80419922 C-1123.35941604 272.55299869 -1123.33772522 282.28732943 -1123.31567383 292.16308594 C-1123.31252819 295.09869064 -1123.33599682 298.03327013 -1123.36132812 300.96875 C-1123.46339166 331.60535765 -1115.62564082 361.08116424 -1101 388 C-1100.67918457 388.60537598 -1100.35836914 389.21075195 -1100.02783203 389.83447266 C-1093.06042054 402.95188982 -1084.22638669 414.2528251 -1074 425 C-1073.48953125 425.5377002 -1072.9790625 426.07540039 -1072.453125 426.62939453 C-1042.29407352 458.18893935 -998.77677827 479.89941747 -954.61132812 481.17700195 C-953.08472136 481.20307215 -951.55800561 481.22327513 -950.03125 481.23828125 C-949.20148651 481.2480751 -948.37172302 481.25786896 -947.51681519 481.26795959 C-928.98837962 481.44157387 -911.15394448 481.14362664 -893 477 C-892.05672852 476.79632812 -891.11345703 476.59265625 -890.14160156 476.3828125 C-868.62014703 471.66019058 -848.45307214 463.22905516 -829 453 C-826.33852106 451.65600909 -823.66973996 450.32755963 -821 449 C-820.83508057 449.58152832 -820.67016113 450.16305664 -820.50024414 450.76220703 C-811.46703328 482.28746529 -798.6377102 513.20286225 -778 539 C-777.29359375 539.89847656 -776.5871875 540.79695313 -775.859375 541.72265625 C-745.33328712 579.8802661 -702.40682946 607.29988364 -653.39575195 613.58544922 C-645.81997374 614.38292232 -638.2055394 614.37194327 -630.59545898 614.37060547 C-627.83318825 614.37496733 -625.07253599 614.4114001 -622.31054688 614.44921875 C-573.71028149 614.7537896 -529.26481159 590.56648349 -495.125 557.375 C-490.40828195 552.52578987 -486.16908153 547.32192321 -482 542 C-481.26910156 541.07445312 -480.53820312 540.14890625 -479.78515625 539.1953125 C-458.21944258 511.22431657 -445.84677599 479.65297232 -436 446 C-432.8319721 447.21066749 -429.90422585 448.53413815 -426.98046875 450.25 C-396.82843165 467.59578363 -361.50939507 480.93224289 -326.31640625 481.23828125 C-325.39211319 481.24812042 -324.46782013 481.25795959 -323.51551819 481.26809692 C-295.01565346 481.63659291 -295.01565346 481.63659291 -267 477 C-266.05157227 476.75862305 -265.10314453 476.51724609 -264.12597656 476.26855469 C-233.69001486 468.29078035 -206.81384339 453.64036279 -184 432 C-183.51063965 431.54318848 -183.0212793 431.08637695 -182.51708984 430.61572266 C-154.69353596 404.5078535 -135.98797639 368.70493521 -130 331 C-129.75056641 329.72346558 -129.75056641 329.72346558 -129.49609375 328.42114258 C-127.59030012 317.87376593 -127.60172137 307.36969134 -127.625 296.6875 C-127.62587616 295.70856781 -127.62675232 294.72963562 -127.62765503 293.72103882 C-127.67171065 278.805696 -128.3509949 264.52619534 -132 250 C-132.3700415 248.47802002 -132.3700415 248.47802002 -132.74755859 246.92529297 C-137.25680178 228.72500201 -143.7611228 211.70852886 -151.6875 194.75 C-152.22189697 193.606521 -152.22189697 193.606521 -152.76708984 192.43994141 C-154.91498291 187.95863287 -157.30835412 183.77888979 -160.05786133 179.63769531 C-161 178 -161 178 -161 176 C-160.38294189 175.8047876 -159.76588379 175.6095752 -159.13012695 175.40844727 C-103.92796722 157.81374725 -53.31843027 127.71698258 -24 76 C-23.65018066 75.40380859 -23.30036133 74.80761719 -22.93994141 74.19335938 C-9.61364089 51.38183394 -2.48739358 26.15036142 0 0 Z " fill="#FEFEFE" transform="translate(1259,645)"/>
<path d="M0 0 C202.95 0 405.9 0 615 0 C615 201.96 615 403.92 615 612 C614.67 612 614.34 612 614 612 C613.77957031 610.30810547 613.77957031 610.30810547 613.5546875 608.58203125 C606.63309241 558.7476189 580.57065797 512.7336167 540.46118164 481.98925781 C538.65363336 480.64078131 536.83140645 479.31587835 535 478 C534.34225586 477.52498047 533.68451172 477.04996094 533.00683594 476.56054688 C508.47040738 459.04935809 480.92657463 447.13903621 452 439 C452.51867445 433.70740356 455.31251892 429.73661324 457.9375 425.25 C469.10034142 405.47336999 476.40308731 383.95091689 482 362 C482.24008789 361.0709082 482.48017578 360.14181641 482.72753906 359.18457031 C489.45850976 331.68890611 489.07473737 297.3654071 482 270 C481.75862305 269.05012207 481.51724609 268.10024414 481.26855469 267.12158203 C473.29831865 236.71939237 458.66054003 209.76362309 437 187 C436.48953125 186.4622998 435.9790625 185.92459961 435.453125 185.37060547 C412.93379107 161.80554313 385.07634813 146.14586385 353.875 136.8125 C353.10776611 136.57450684 352.34053223 136.33651367 351.55004883 136.09130859 C334.82880496 131.30230408 317.47409756 130.44340314 300.1875 130.5625 C299.22888062 130.56587372 298.27026123 130.56924744 297.28259277 130.57272339 C282.54637505 130.64762683 268.33932565 131.32865388 254 135 C253.02305176 135.24669434 252.04610352 135.49338867 251.03955078 135.74755859 C224.62048255 142.59943921 200.44672717 153.11867883 177 167 C176.81002441 166.30253662 176.62004883 165.60507324 176.42431641 164.88647461 C165.5605645 125.4836142 147.87874585 89.24211019 119.46386719 59.53125 C118.47256414 58.49431659 117.48636667 57.45248231 116.50488281 56.40625 C86.66143174 24.67493845 43.45982321 4.09640088 0 1 C0 0.67 0 0.34 0 0 Z " fill="#FEFEFE" transform="translate(645,0)"/>
<path d="M0 0 C201.63 0 403.26 0 611 0 C611 0.33 611 0.66 611 1 C609.93007813 1.12375 608.86015625 1.2475 607.7578125 1.375 C559.05471443 7.68464722 513.46433011 34.53001626 483.125 73.0625 C463.49951921 98.66489774 448.66462828 127.90927501 440 159 C436.18370328 159 435.45221336 158.96526228 432.4453125 157.1640625 C431.75977295 156.76421143 431.0742334 156.36436035 430.36791992 155.95239258 C429.62775635 155.51435303 428.88759277 155.07631348 428.125 154.625 C411.91582975 145.36475338 395.09516107 138.17040599 377.25537109 132.69775391 C375.3244076 132.10036338 373.40496316 131.46595541 371.48828125 130.82421875 C368.02181586 129.71989583 364.54621082 128.8007304 361 128 C360.19820313 127.81808105 359.39640625 127.63616211 358.5703125 127.44873047 C343.45332084 124.20898389 328.52469603 123.60181766 313.125 123.5625 C312.22673492 123.55641724 311.32846985 123.55033447 310.40298462 123.54406738 C293.69824384 123.47007581 277.18821778 125.05869799 261.0625 129.625 C260.15902832 129.87805908 259.25555664 130.13111816 258.32470703 130.3918457 C235.33143441 137.11900436 213.16597845 148.34858778 195 164 C194.15824219 164.71414062 193.31648437 165.42828125 192.44921875 166.1640625 C189.90658508 168.38626607 187.4475917 170.67336487 185 173 C184.43667969 173.53077148 183.87335938 174.06154297 183.29296875 174.60839844 C158.07973264 198.50789225 142.05796511 228.60208161 133 262 C132.7726416 262.81807129 132.5452832 263.63614258 132.31103516 264.47900391 C125.32984004 291.02471664 125.82931388 325.16947657 132.45751953 351.78857422 C132.98419844 353.93558483 133.42363834 356.08307973 133.83984375 358.25390625 C139.19413503 385.08861477 151.35114137 410.82699711 165.98046875 433.7734375 C168 437 168 437 168 438 C167.35788574 438.16491943 166.71577148 438.32983887 166.05419922 438.49975586 C150.4890377 442.5479141 135.65611596 447.36254434 121 454 C120.15630859 454.37995117 119.31261719 454.75990234 118.44335938 455.15136719 C100.57225502 463.32556326 83.72872924 473.9517298 69 487 C68.19046875 487.70125 67.3809375 488.4025 66.546875 489.125 C30.42038583 520.93448732 5.93920157 563.62988803 1 612 C0.67 612 0.34 612 0 612 C0 410.04 0 208.08 0 0 Z " fill="#FEFEFE" transform="translate(0,0)"/>
<path d="M0 0 C1.19567093 -0.00046829 1.19567093 -0.00046829 2.41549683 -0.00094604 C40.90610095 0.11385634 78.3940199 11.8505806 111.26953125 31.69921875 C114.05308916 33.4371345 114.05308916 33.4371345 116.63671875 34.51953125 C118.625 35.5 118.625 35.5 121.1875 38.4375 C121.65498271 44.33769846 120.8707425 50.07916495 119.69610596 55.85284424 C118.34530304 62.5587323 117.88036879 68.95867727 117.88671875 75.7890625 C117.88243362 76.84620453 117.8781485 77.90334656 117.87373352 78.99252319 C117.86802382 81.22287283 117.86746497 83.45324107 117.87182617 85.68359375 C117.87494651 89.00555506 117.85162192 92.32658845 117.82617188 95.6484375 C117.72750944 128.82333604 124.27566436 159.91189567 134.1875 191.4375 C134.48994629 192.42121582 134.79239258 193.40493164 135.10400391 194.41845703 C150.7691378 245.20255483 175.47904765 295.216511 203.40625 340.28515625 C204.11544514 341.43725761 204.8245119 342.589438 205.53344727 343.74169922 C206.90454065 345.95958321 208.29000008 348.16866431 209.69116211 350.36767578 C210.30741455 351.36395996 210.92366699 352.36024414 211.55859375 353.38671875 C212.11474365 354.26674561 212.67089355 355.14677246 213.24389648 356.0534668 C214.1875 358.4375 214.1875 358.4375 213.46459961 360.64453125 C211.95682433 362.76135436 210.38106972 364.17710642 208.3125 365.75 C207.63445312 366.28238281 206.95640625 366.81476563 206.2578125 367.36328125 C204.1875 368.4375 204.1875 368.4375 202.1328125 368.30078125 C199.84786651 367.28677911 198.63166453 366.14647422 196.9375 364.3125 C194.57768395 361.77745008 192.10780081 359.48203735 189.484375 357.2265625 C184.231194 352.67033099 179.41248157 347.71211694 174.54296875 342.75390625 C171.19447477 339.3686829 167.83089331 336.07304742 164.21875 332.96875 C158.81329389 328.31803801 153.894412 323.19060504 148.8984375 318.109375 C144.79238029 313.9609873 140.60939831 310.01450023 136.18359375 306.2109375 C131.75952892 302.28035935 127.68769556 297.974129 123.54296875 293.75390625 C120.18421876 290.35831439 116.80897576 287.05332231 113.1875 283.9375 C108.02189256 279.49314748 103.31457707 274.61242912 98.54296875 269.75390625 C95.19447477 266.3686829 91.83089331 263.07304742 88.21875 259.96875 C82.81329389 255.31803801 77.894412 250.19060504 72.8984375 245.109375 C68.79238029 240.9609873 64.60939831 237.01450023 60.18359375 233.2109375 C55.75952892 229.28035935 51.68769556 224.974129 47.54296875 220.75390625 C44.18421876 217.35831439 40.80897576 214.05332231 37.1875 210.9375 C32.02189256 206.49314748 27.31457707 201.61242912 22.54296875 196.75390625 C19.23330185 193.40793588 15.91439087 190.14858019 12.3359375 187.08984375 C6.51487757 182.08419079 1.23322877 176.51170774 -4.12890625 171.02514648 C-5.51649001 169.60755197 -6.91048418 168.19624095 -8.3046875 166.78515625 C-9.12308105 165.94992432 -9.94147461 165.11469238 -10.78466797 164.25415039 C-12.6070157 162.21508044 -12.6070157 162.21508044 -14.8125 162.4375 C-14.06154053 163.18322266 -13.31058105 163.92894531 -12.53686523 164.69726562 C-9.7181626 167.49769739 -6.90291081 170.30157745 -4.08862305 173.10644531 C-2.87632752 174.31375065 -1.6631313 175.52015234 -0.44897461 176.72558594 C11.22140689 188.31428918 11.22140689 188.31428918 16.57006836 194.59960938 C19.75817184 198.22225737 23.24616525 201.55772759 26.6875 204.9375 C30.81074574 208.98698464 34.887617 213.02108948 38.65625 217.40625 C42.59937392 221.98928661 46.87860398 226.20090089 51.1875 230.4375 C56.11660718 235.28390404 60.87722211 240.16747619 65.3828125 245.41015625 C68.80759831 249.25748057 72.51604526 252.82764685 76.1875 256.4375 C81.12683826 261.29396346 85.89901141 266.18771776 90.4140625 271.44140625 C93.66940121 275.10545488 97.19201948 278.50455043 100.6875 281.9375 C104.81074574 285.98698464 108.887617 290.02108948 112.65625 294.40625 C116.59937392 298.98928661 120.87860398 303.20090089 125.1875 307.4375 C130.11660718 312.28390404 134.87722211 317.16747619 139.3828125 322.41015625 C142.80759831 326.25748057 146.51604526 329.82764685 150.1875 333.4375 C155.12683826 338.29396346 159.89901141 343.18771776 164.4140625 348.44140625 C167.66940121 352.10545488 171.19201948 355.50455043 174.6875 358.9375 C187.23836144 371.26383798 187.23836144 371.26383798 190.1875 375.4375 C190.1875 376.4275 190.1875 377.4175 190.1875 378.4375 C187.95703125 380.515625 187.95703125 380.515625 185 382.6875 C184.03707031 383.41453125 183.07414062 384.1415625 182.08203125 384.890625 C178.65132634 386.72403815 177.82005303 386.47316405 174.1875 385.4375 C172.08886719 384.44458008 172.08886719 384.44458008 169.984375 383.20703125 C169.18273926 382.74135742 168.38110352 382.27568359 167.55517578 381.79589844 C166.25942627 381.03067871 166.25942627 381.03067871 164.9375 380.25 C163.03437045 379.14624474 161.13070254 378.04341734 159.2265625 376.94140625 C158.23301758 376.36406738 157.23947266 375.78672852 156.21582031 375.19189453 C100.91823331 343.156385 41.1967832 313.369185 -21.8125 300.4375 C-22.92012695 300.20450195 -24.02775391 299.97150391 -25.16894531 299.73144531 C-28.60949553 299.01268362 -32.05330226 298.3136447 -35.5 297.625 C-36.52681885 297.4175415 -37.5536377 297.21008301 -38.61157227 296.99633789 C-53.72540231 294.10676777 -68.92316217 294.23888308 -84.25 294.25 C-85.26709045 294.2492749 -86.28418091 294.2485498 -87.33209229 294.24780273 C-101.92127784 294.24895387 -116.32253387 294.58066223 -130.8125 296.4375 C-142.53076244 277.79075919 -152.58552603 259.29403635 -159.8125 238.4375 C-160.06370605 237.71433594 -160.31491211 236.99117187 -160.57373047 236.24609375 C-163.14441905 228.7249119 -165.22973564 221.12281274 -167 213.375 C-167.15500977 212.70380127 -167.31001953 212.03260254 -167.46972656 211.34106445 C-170.41093171 197.79966624 -171.18588358 184.48566878 -171.125 170.6875 C-171.12350952 169.85088837 -171.12201904 169.01427673 -171.1204834 168.15231323 C-171.08156773 156.00496239 -170.63609137 144.30143113 -167.8125 132.4375 C-167.37744141 130.52904297 -167.37744141 130.52904297 -166.93359375 128.58203125 C-166.00306988 124.82489514 -164.94607609 121.13817796 -163.8125 117.4375 C-163.62381348 116.80231445 -163.43512695 116.16712891 -163.24072266 115.51269531 C-155.88498043 91.16223661 -142.364086 69.69586127 -124.8125 51.4375 C-124.36970703 50.96892578 -123.92691406 50.50035156 -123.47070312 50.01757812 C-111.9939799 37.91113071 -99.38398282 28.52579839 -84.8125 20.4375 C-84.19036621 20.08945313 -83.56823242 19.74140625 -82.92724609 19.3828125 C-57.26328031 5.2307215 -29.06238493 -0.02592604 0 0 Z " fill="#CDAF57" transform="translate(313.8125,137.5625)"/>
<path d="M0 0 C1.75042027 2.01515694 3.30721461 3.99864607 4.8671875 6.15234375 C10.99999049 14.26893556 17.90453482 21.41520289 25.125 28.5625 C25.76273346 29.19719208 26.40046692 29.83188416 27.05752563 30.48580933 C36.47874816 39.84073397 45.97268246 48.55448786 57 56 C58.39381008 56.97573321 59.78702161 57.95232188 61.1796875 58.9296875 C128.0744587 105.23276492 207.08589965 128.25108508 285 148 C283.40554307 156.26218593 280.73981931 164.06288986 278 172 C277.40644053 172.00938567 276.81288107 172.01877134 276.20133495 172.02844143 C261.62108914 172.25918999 247.04089714 172.49314863 232.46075726 172.73049068 C225.40932709 172.84520307 218.35788363 172.95890886 211.30639648 173.07006836 C205.14567664 173.16718857 198.98499379 173.26637703 192.82434398 173.36784559 C189.57565702 173.42128601 186.32695867 173.47352042 183.07822227 173.5238781 C170.42205539 173.72066843 157.77666364 173.97679177 145.12890625 174.48632812 C128.33888116 175.15665286 111.54211468 175.41758673 94.74213433 175.70718122 C90.16181137 175.78670097 85.58154248 175.86922798 81.00126648 175.95140076 C72.37487176 176.10572415 63.74843342 176.25744413 55.12197512 176.40816683 C45.28111229 176.58023922 35.44030343 176.75530823 25.59949744 176.93059647 C5.39972221 177.29033722 -14.80011605 177.64642035 -35 178 C-34.16936885 178.0145394 -33.3387377 178.02907881 -32.48293591 178.0440588 C-12.14450075 178.40024544 8.19388078 178.75936795 28.53220844 179.12164211 C38.3682091 179.29677608 48.2042247 179.47096526 58.0402832 179.64282227 C66.62693773 179.79285202 75.21355668 179.94476441 83.80014008 180.09881264 C88.33432646 180.18009608 92.8685239 180.26052189 97.40276527 180.33868217 C114.39784194 180.63217562 131.38172116 180.95984321 148.36645699 181.6441021 C161.20248463 182.15043869 174.04290693 182.33606822 186.88671875 182.53515625 C189.53856327 182.57832409 192.19040328 182.62171313 194.84223938 182.66539001 C201.0249336 182.76675109 207.20766877 182.86531938 213.3904255 182.96278423 C220.45020437 183.07421798 227.50992914 183.18891752 234.56965196 183.30383885 C249.04637857 183.53942704 263.52316635 183.77108476 278 184 C278.65482606 185.58959213 279.30496393 187.18111607 279.953125 188.7734375 C280.31567383 189.65950684 280.67822266 190.54557617 281.05175781 191.45849609 C282.10664713 194.28583848 282.68423628 197.00024462 283 200 C274.26468067 202.4646469 265.52166541 204.88195804 256.73046875 207.14038086 C183.19225525 226.05936893 99.25990189 253.85371863 43 307 C41.69205429 308.13029167 40.37963752 309.25543311 39.0625 310.375 C31.08333589 317.35676859 23.85917977 324.88266573 17.2578125 333.17578125 C15.25248275 335.68417815 13.19685169 338.14054854 11.11694336 340.5871582 C6.66659356 345.83378994 2.66657752 351.18336587 -1 357 C-39.87525263 350.63621286 -75.64634994 331.85540207 -105 306 C-105.50192871 305.56123535 -106.00385742 305.1224707 -106.52099609 304.67041016 C-122.46008357 290.69434164 -135.39593333 273.88373338 -145 255 C-145.34901367 254.32501465 -145.69802734 253.6500293 -146.05761719 252.95458984 C-166.43228202 213.19113105 -168.83851225 168.36663528 -156 125.9375 C-150.53408019 110.26740173 -143.10276521 94.22473297 -133 81 C-132.61054199 80.4750293 -132.22108398 79.95005859 -131.81982422 79.40917969 C-121.72521904 65.81683095 -110.49279932 53.28658958 -97 43 C-95.99582031 42.19175781 -94.99164063 41.38351562 -93.95703125 40.55078125 C-86.07025921 34.23553865 -77.7936609 28.95789571 -69 24 C-68.35611328 23.6302002 -67.71222656 23.26040039 -67.04882812 22.87939453 C-50.7214778 13.55468132 -33.36630556 7.02835966 -15.3125 1.875 C-14.24322266 1.56739746 -13.17394531 1.25979492 -12.07226562 0.94287109 C-11.07517578 0.67039551 -10.07808594 0.39791992 -9.05078125 0.1171875 C-8.17075439 -0.12402832 -7.29072754 -0.36524414 -6.3840332 -0.61376953 C-3.67404059 -1.05280776 -2.48274885 -1.19153655 0 0 Z " fill="#CDAF57" transform="translate(179,452)"/>
<path d="M0 0 C31.19838612 28.51960015 51.96000321 69.34720009 53.91210938 111.89453125 C54.93040679 139.33388425 52.69934558 165.45014277 43.68896484 191.54394531 C43.42744629 192.32253906 43.16592773 193.10113281 42.89648438 193.90332031 C36.61842039 212.47993094 28.20836006 230.00257747 17.68896484 246.54394531 C16.44501953 246.41117187 15.20107422 246.27839844 13.91943359 246.14160156 C12.23844859 245.96317299 10.55745874 245.78479004 8.87646484 245.60644531 C8.06242187 245.51943359 7.24837891 245.43242187 6.40966797 245.34277344 C3.83669826 245.07034135 1.26295631 244.80654621 -1.31103516 244.54394531 C-2.14844238 244.45646027 -2.98584961 244.36897522 -3.84863281 244.27883911 C-10.28210379 243.64442739 -16.64137885 243.38378435 -23.10400391 243.37597656 C-24.09370682 243.37264816 -25.08340973 243.36931976 -26.10310364 243.3658905 C-28.18290752 243.36086487 -30.26271935 243.35848081 -32.3425293 243.35864258 C-35.47344705 243.35646278 -38.60400789 243.33827802 -41.73486328 243.31933594 C-53.10711284 243.2865715 -64.07797817 243.70172711 -75.31103516 245.54394531 C-76.91773071 245.80147583 -76.91773071 245.80147583 -78.55688477 246.06420898 C-150.27544303 258.19579097 -220.65783256 290.84796621 -281.93212891 329.44238281 C-282.62854492 329.87607178 -283.32496094 330.30976074 -284.04248047 330.7565918 C-285.29168818 331.53882783 -286.53292796 332.33403514 -287.76318359 333.14575195 C-290.22372781 334.69192475 -291.90618879 335.54769389 -294.84228516 335.52050781 C-298.00768511 334.26837176 -300.41420192 332.53792717 -303.12353516 330.48144531 C-304.09935547 329.74796875 -305.07517578 329.01449219 -306.08056641 328.25878906 C-306.81662109 327.69289063 -307.55267578 327.12699219 -308.31103516 326.54394531 C-306.3232157 324.19933775 -304.32351267 321.86732749 -302.31103516 319.54394531 C-301.70388672 318.84140625 -301.09673828 318.13886719 -300.47119141 317.41503906 C-294.95406371 311.15664661 -289.11116387 305.27268226 -283.15917969 299.42895508 C-279.94035512 296.25178402 -276.83001825 293.0450369 -273.88134766 289.61425781 C-269.21482193 284.19791975 -264.07742598 279.26392019 -258.98291016 274.25488281 C-255.46972115 270.77754268 -252.03378252 267.29391632 -248.81103516 263.54394531 C-244.17301503 258.14717074 -239.05350613 253.24040167 -233.98291016 248.25488281 C-229.83452246 244.1488256 -225.88803539 239.96584363 -222.08447266 235.54003906 C-218.15389451 231.11597423 -213.84766415 227.04414088 -209.62744141 222.89941406 C-206.24221806 219.55092008 -202.94658257 216.18733862 -199.84228516 212.57519531 C-195.19157317 207.16973921 -190.0641402 202.25085732 -184.98291016 197.25488281 C-181.46972115 193.77754268 -178.03378252 190.29391632 -174.81103516 186.54394531 C-170.17301503 181.14717074 -165.05350613 176.24040167 -159.98291016 171.25488281 C-155.83452246 167.1488256 -151.88803539 162.96584363 -148.08447266 158.54003906 C-144.15389451 154.11597423 -139.84766415 150.04414088 -135.62744141 145.89941406 C-132.32482242 142.63262819 -129.10196961 139.36198207 -126.08837891 135.82519531 C-120.8569446 129.74457027 -115.0629315 124.19074553 -109.37353516 118.54394531 C-108.20077507 117.37621157 -107.02824718 116.20824458 -105.85595703 115.04003906 C-103.01031827 112.20531297 -100.16156063 109.37375707 -97.31103516 106.54394531 C-101.47383703 109.83575141 -105.37784295 113.29417132 -109.24853516 116.91894531 C-110.22608765 117.83172241 -110.22608765 117.83172241 -111.22338867 118.76293945 C-116.39239779 123.61788219 -121.43249805 128.5909736 -126.39086914 133.66064453 C-129.22808481 136.54321074 -132.12358718 139.28390573 -135.18994141 141.92285156 C-139.61938921 145.7498987 -143.7112415 149.86947417 -147.81103516 154.04394531 C-151.86051979 158.16719105 -155.89462464 162.24406232 -160.27978516 166.01269531 C-164.86282176 169.95581924 -169.07443605 174.23504929 -173.31103516 178.54394531 C-178.16749862 183.48328358 -183.06125292 188.25545672 -188.31494141 192.77050781 C-191.97899004 196.02584652 -195.37808559 199.54846479 -198.81103516 203.04394531 C-203.49430739 207.81252306 -208.23069867 212.39370498 -213.29736328 216.75292969 C-216.9659307 220.01585531 -220.37216115 223.54243243 -223.81103516 227.04394531 C-227.86051979 231.16719105 -231.89462464 235.24406232 -236.27978516 239.01269531 C-240.86282176 242.95581924 -245.07443605 247.23504929 -249.31103516 251.54394531 C-254.16749862 256.48328358 -259.06125292 261.25545672 -264.31494141 265.77050781 C-267.97899004 269.02584652 -271.37808559 272.54846479 -274.81103516 276.04394531 C-279.49430739 280.81252306 -284.23069867 285.39370498 -289.29736328 289.75292969 C-292.9659307 293.01585531 -296.37216115 296.54243243 -299.81103516 300.04394531 C-304.61105112 304.93139326 -309.45730337 309.66106346 -314.66455078 314.11621094 C-315.92490007 315.20911168 -317.13143515 316.3643453 -318.31103516 317.54394531 C-321.99563418 317.23689539 -324.25662695 315.24971666 -327.06103516 312.98144531 C-327.86025391 312.34078125 -328.65947266 311.70011719 -329.48291016 311.04003906 C-330.08619141 310.54632813 -330.68947266 310.05261719 -331.31103516 309.54394531 C-329.92532489 305.84425778 -328.24437243 302.51820577 -326.25634766 299.10644531 C-325.64823242 298.0586792 -325.04011719 297.01091309 -324.41357422 295.93139648 C-323.76098633 294.8135376 -323.10839844 293.69567871 -322.43603516 292.54394531 C-321.75030974 291.36105053 -321.06509506 290.17785953 -320.38037109 288.99438477 C-317.37736523 283.80654378 -314.36230822 278.62616185 -311.31884766 273.46191406 C-284.37792727 227.4552577 -262.67469404 178.59585304 -247.31103516 127.54394531 C-247.02147949 126.60260742 -246.73192383 125.66126953 -246.43359375 124.69140625 C-239.56659757 102.19481959 -235.17061828 78.14684058 -235.14306641 54.59472656 C-235.13973801 53.57904099 -235.13640961 52.56335541 -235.13298035 51.51689148 C-235.12794851 49.37983651 -235.12557085 47.24277378 -235.12573242 45.10571289 C-235.12355278 41.88251397 -235.10537528 38.65966173 -235.08642578 35.43652344 C-235.0536255 23.31907221 -235.49884319 11.72473307 -237.85009766 -0.18701172 C-238.31450026 -2.7588688 -238.36078909 -4.05116387 -237.31103516 -6.45605469 C-233.99211653 -9.38041656 -230.309512 -11.37513683 -226.39892578 -13.37744141 C-224.21277037 -14.5068187 -222.06754285 -15.69568654 -219.92041016 -16.89746094 C-150.18603836 -55.42204396 -61.01162727 -54.96387772 0 0 Z " fill="#CDAF57" transform="translate(1063.31103515625,188.4560546875)"/>
<path d="M0 0 C2.76907497 1.33457667 5.40984324 2.78054289 8.0612793 4.33618164 C9.10469482 4.94469971 10.14811035 5.55321777 11.22314453 6.18017578 C12.33633057 6.83236084 13.4495166 7.4845459 14.59643555 8.15649414 C87.93716782 50.82469423 171.33857394 93.40523998 258.22753906 92.56274414 C261.51533239 92.53107126 264.8026439 92.52169752 268.09057617 92.51586914 C270.2240455 92.50671361 272.35751004 92.49634251 274.4909668 92.48461914 C275.93340508 92.47824432 275.93340508 92.47824432 277.40498352 92.47174072 C285.68550911 92.38552432 293.85594638 91.93798842 301.97143555 90.21899414 C302.78741211 90.05657227 303.60338867 89.89415039 304.4440918 89.72680664 C306.26793307 89.3601084 308.08887254 88.97900747 309.90893555 88.59399414 C314.59235278 89.76484845 316.24526609 94.32072545 318.65893555 98.28149414 C328.97105331 115.90831656 336.50833585 134.54131029 341.65893555 154.28149414 C342.01121216 155.50376709 342.01121216 155.50376709 342.37060547 156.75073242 C354.9332389 200.81526825 348.51700837 251.59038366 326.90014648 291.71655273 C323.03705041 298.6335584 318.46297738 304.99407868 313.65893555 311.28149414 C312.9628418 312.20317383 312.26674805 313.12485352 311.54956055 314.07446289 C284.47984868 348.52219773 244.94557449 369.70994655 201.65893555 375.28149414 C200.41184814 375.45277832 199.16476074 375.6240625 197.87988281 375.80053711 C191.10821212 376.6418434 184.28513073 376.52605064 177.47143555 376.53149414 C176.71327545 376.53216888 175.95511536 376.53284363 175.17398071 376.53353882 C162.77399098 376.51604526 150.8337885 375.78648616 138.65893555 373.28149414 C137.81685547 373.11520508 136.97477539 372.94891602 136.10717773 372.77758789 C107.59292894 367.02144047 80.88059734 355.27507416 56.65893555 339.28149414 C56.87005981 337.54766479 56.87005981 337.54766479 57.08544922 335.77880859 C58.54498347 323.05875697 59.00097771 310.47223853 58.97460938 297.67382812 C58.97144858 294.48215527 58.99502911 291.29141301 59.02026367 288.09985352 C59.07895783 269.28136762 57.04909236 250.90661339 52.97143555 232.53149414 C52.71652344 231.3694043 52.46161133 230.20731445 52.19897461 229.01000977 C37.70391156 164.82995759 7.83766319 102.39734909 -26.51293945 46.45727539 C-27.21917244 45.30168593 -27.92538999 44.14608703 -28.6315918 42.99047852 C-29.9947037 40.76939479 -31.3695889 38.55548268 -32.75756836 36.34985352 C-33.37035645 35.35405273 -33.98314453 34.35825195 -34.61450195 33.33227539 C-35.16541504 32.45224854 -35.71632813 31.57222168 -36.28393555 30.66552734 C-37.34106445 28.28149414 -37.34106445 28.28149414 -37.15429688 26.0859375 C-35.89458886 23.29083034 -33.80400733 22.19381097 -31.27856445 20.53149414 C-29.89991211 19.61110352 -29.89991211 19.61110352 -28.4934082 18.67211914 C-27.78313477 18.21321289 -27.07286133 17.75430664 -26.34106445 17.28149414 C-23.99646515 19.26930659 -21.66471704 21.26934571 -19.34106445 23.28149414 C-18.65012695 23.87704102 -17.95918945 24.47258789 -17.24731445 25.08618164 C-10.74498961 30.80911823 -4.65259591 36.90196723 1.41821289 43.07763672 C4.7347914 46.43485009 8.07299766 49.69491134 11.65112305 52.77368164 C16.81892668 57.2211632 21.52925378 62.10391288 26.3034668 66.96508789 C29.65196077 70.35031124 33.01554224 73.64594672 36.62768555 76.75024414 C42.03314165 81.40095613 46.95202354 86.5283891 51.94799805 91.60961914 C56.05405526 95.75800684 60.23703723 99.70449391 64.6628418 103.50805664 C69.08690663 107.43863479 73.15873998 111.74486514 77.3034668 115.96508789 C80.65196077 119.35031124 84.01554224 122.64594672 87.62768555 125.75024414 C93.03314165 130.40095613 97.95202354 135.5283891 102.94799805 140.60961914 C107.05405526 144.75800684 111.23703723 148.70449391 115.6628418 152.50805664 C120.08690663 156.43863479 124.15873998 160.74486514 128.3034668 164.96508789 C131.65196077 168.35031124 135.01554224 171.64594672 138.62768555 174.75024414 C144.03314165 179.40095613 148.95202354 184.5283891 153.94799805 189.60961914 C158.04800688 193.7518961 162.22524671 197.68920618 166.64526367 201.48608398 C171.20692344 205.55330585 175.39702555 210.02435108 179.6550293 214.40454102 C180.37303711 215.13350586 181.09104492 215.8624707 181.83081055 216.61352539 C182.47115234 217.27070557 183.11149414 217.92788574 183.77124023 218.60498047 C185.64716233 220.27103802 187.37043592 221.27972025 189.65893555 222.28149414 C188.96856201 221.59635742 188.27818848 220.9112207 187.56689453 220.20532227 C184.97181428 217.62853431 182.38020263 215.04828052 179.78955078 212.46704102 C178.67426264 211.3567383 177.55807344 210.24733985 176.44091797 209.13891602 C170.89095238 203.63120274 165.42073476 198.1378213 160.34277344 192.18579102 C156.96966093 188.37104873 153.28837956 184.85004144 149.65893555 181.28149414 C144.71959728 176.42503068 139.94742414 171.53127638 135.43237305 166.27758789 C132.17703434 162.61353926 128.65441607 159.21444371 125.15893555 155.78149414 C121.03568981 151.7320095 116.95881854 147.69790466 113.19018555 143.31274414 C109.24706162 138.72970753 104.96783157 134.51809325 100.65893555 130.28149414 C95.72982837 125.4350901 90.96921344 120.55151795 86.46362305 115.30883789 C83.03883724 111.46151357 79.33039028 107.89134729 75.65893555 104.28149414 C70.71959728 99.42503068 65.94742414 94.53127638 61.43237305 89.27758789 C58.17703434 85.61353926 54.65441607 82.21444371 51.15893555 78.78149414 C47.03568981 74.7320095 42.95881854 70.69790466 39.19018555 66.31274414 C35.24706162 61.72970753 30.96783157 57.51809325 26.65893555 53.28149414 C21.72982837 48.4350901 16.96921344 43.55151795 12.46362305 38.30883789 C9.03883724 34.46151357 5.33039028 30.89134729 1.65893555 27.28149414 C-2.79696643 22.90035562 -7.23093387 18.50295531 -11.46606445 13.90649414 C-12.04614258 13.28000977 -12.6262207 12.65352539 -13.22387695 12.00805664 C-13.59254883 11.43829102 -13.9612207 10.86852539 -14.34106445 10.28149414 C-13.05674602 6.42853884 -11.31327775 5.39426966 -8.09106445 2.96899414 C-7.1371582 2.23036133 -6.18325195 1.49172852 -5.20043945 0.73071289 C-2.34106445 -0.71850586 -2.34106445 -0.71850586 0 0 Z " fill="#CDAF57" transform="translate(769.341064453125,735.718505859375)"/>
<path d="M0 0 C3.19320255 2.77518692 6.2520605 5.68404059 9.3203125 8.59521484 C10.56263155 9.64603016 11.81172064 10.68894574 13.0703125 11.72021484 C16.91380229 14.99126998 20.0821966 18.73689529 23.3203125 22.59521484 C24.0834375 23.47048828 24.8465625 24.34576172 25.6328125 25.24755859 C44.84044649 47.60644503 58.27638704 74.42364261 67.3828125 102.34521484 C67.66987061 103.21307617 67.95692871 104.0809375 68.25268555 104.97509766 C70.11064795 110.95134249 72.01631187 117.29657797 71.3203125 123.59521484 C69.69895842 126.22748778 67.60570639 127.60681394 65.0078125 129.22021484 C63.79983339 130.04052924 62.59549599 130.86622756 61.39453125 131.69677734 C60.74572998 132.14093994 60.09692871 132.58510254 59.4284668 133.04272461 C39.7612272 147.52610348 22.05718712 167.5878399 8.3203125 187.59521484 C7.44198731 188.83911492 6.56312039 190.08263274 5.68359375 191.32568359 C-31.69321738 244.99038442 -55.21880956 310.12243085 -71.44311523 372.9909668 C-73.57537709 381.24943658 -75.8367905 389.46709831 -78.14355469 397.67822266 C-79.34591547 401.97737422 -80.51233493 406.28645006 -81.6796875 410.59521484 C-84.65891343 410.62205472 -87.63790045 410.64197521 -90.6171875 410.65771484 C-91.46732422 410.66609375 -92.31746094 410.67447266 -93.19335938 410.68310547 C-94.40668945 410.68793945 -94.40668945 410.68793945 -95.64453125 410.69287109 C-96.76782837 410.70072632 -96.76782837 410.70072632 -97.91381836 410.70874023 C-99.6796875 410.59521484 -99.6796875 410.59521484 -100.6796875 409.59521484 C-100.83771127 406.5164768 -100.93048944 403.45794213 -100.98303223 400.37669373 C-101.00359885 399.39602387 -101.02416547 398.41535401 -101.04535532 397.40496689 C-101.11368772 394.08882083 -101.17496747 390.77258071 -101.23632812 387.45629883 C-101.28369662 385.08710914 -101.33149218 382.71792796 -101.37968445 380.34875488 C-101.49655749 374.54757204 -101.60886628 368.74631349 -101.71917379 362.94500237 C-101.84894544 356.13154612 -101.98406775 349.31819906 -102.11943489 342.50485206 C-102.36237323 330.26885381 -102.60072981 318.03277058 -102.83642578 305.79663086 C-103.06237643 294.06675522 -103.29095784 282.3369355 -103.52294922 270.60717773 C-103.53705607 269.89389037 -103.55116292 269.18060301 -103.56569725 268.44570088 C-103.62250189 265.57373835 -103.6793092 262.70177589 -103.73612407 259.82981357 C-103.96009334 248.50386877 -104.18192525 237.17788194 -104.4033989 225.8518881 C-104.49489321 221.17310434 -104.58668566 216.4943265 -104.67854309 211.81554985 C-105.44423657 172.74341568 -106.09535263 133.67041703 -106.6796875 94.59521484 C-106.69866813 95.75713789 -106.71764875 96.91906094 -106.73720455 98.11619377 C-107.83464974 165.24492157 -109.08693818 232.37067168 -110.40490472 299.49540448 C-110.42722244 300.63210167 -110.44954016 301.76879885 -110.47253418 302.93994141 C-110.49483774 304.0757404 -110.5171413 305.2115394 -110.54012072 306.38175654 C-110.69830621 314.44961462 -110.8538968 322.5175203 -111.00842285 330.58544922 C-111.19910914 340.5383272 -111.39331725 350.49112895 -111.59201163 360.4438504 C-111.69513545 365.61350562 -111.79665104 370.7831801 -111.89409828 375.95294571 C-111.9843325 380.73629668 -112.07909147 385.51953554 -112.1775136 390.30272484 C-112.21269475 392.05158236 -112.24618819 393.80047473 -112.27790976 395.54939842 C-112.32112749 397.91839434 -112.3702826 400.28719176 -112.42103577 402.65603638 C-112.43232224 403.35285526 -112.44360872 404.04967415 -112.45523721 404.76760876 C-112.56554573 409.48107308 -112.56554573 409.48107308 -113.6796875 410.59521484 C-116.54236317 410.66846652 -119.3804065 410.68759689 -122.2421875 410.65771484 C-123.04849609 410.65320313 -123.85480469 410.64869141 -124.68554688 410.64404297 C-126.68362506 410.63222002 -128.68166533 410.61428398 -130.6796875 410.59521484 C-130.92090332 409.57911133 -131.16211914 408.56300781 -131.41064453 407.51611328 C-136.90835467 383.82531475 -136.90835467 383.82531475 -143.55250549 360.4420166 C-145.15625828 355.36251665 -146.61487517 350.26042836 -148.00390625 345.11865234 C-150.47456554 336.11909097 -153.27445293 327.25440653 -156.2421875 318.40771484 C-156.4981369 317.64196136 -156.7540863 316.87620789 -157.01779175 316.08724976 C-182.2662718 240.76079102 -217.77041853 165.31386401 -283.6796875 117.59521484 C-283.10103806 110.81215753 -281.35858355 104.78026958 -279.1796875 98.34521484 C-278.82438965 97.29253418 -278.4690918 96.23985352 -278.10302734 95.15527344 C-268.4410237 67.17299749 -254.09623222 42.81474947 -234.6796875 20.59521484 C-233.95652344 19.74830078 -233.23335938 18.90138672 -232.48828125 18.02880859 C-228.21597003 13.08764238 -223.70177539 8.7636386 -218.6796875 4.59521484 C-217.91527344 3.93134766 -217.15085937 3.26748047 -216.36328125 2.58349609 C-154.7199216 -49.83688761 -62.71253489 -52.44882641 0 0 Z " fill="#CDAF57" transform="translate(736.6796875,53.40478515625)"/>
<path d="M0 0 C1.79244141 0.01740234 1.79244141 0.01740234 3.62109375 0.03515625 C5.41740234 0.04869141 5.41740234 0.04869141 7.25 0.0625 C8.17683594 0.07410156 9.10367188 0.08570313 10.05859375 0.09765625 C10.0666806 0.74162354 10.07476746 1.38559082 10.08309937 2.04907227 C10.19325315 10.7320273 10.3110097 19.41486896 10.43359375 28.09765625 C10.4490625 29.1935696 10.4490625 29.1935696 10.46484375 30.31162262 C10.84707301 57.20246206 11.42047946 84.08679607 12.05859375 110.97265625 C12.75264988 140.22279841 13.32587695 169.47021036 13.70481777 198.72613621 C13.91626227 215.0406316 14.20491405 231.34954067 14.62109375 247.66015625 C15.24472518 272.1365476 15.15716667 296.6151372 15.05859375 321.09765625 C15.71859375 321.09765625 16.37859375 321.09765625 17.05859375 321.09765625 C17.05419564 319.9134097 17.04979753 318.72916315 17.04526615 317.50903034 C16.94878611 288.78902997 17.20869685 260.0961382 17.83337855 231.38325858 C17.94627822 226.13577991 18.05294357 220.88817384 18.16029358 215.64057922 C18.38734884 204.58408401 18.62024826 193.52771813 18.85455322 182.47137451 C19.2488926 163.85944678 19.6365447 145.24737845 20.01974154 126.63521814 C20.06379342 124.49681263 20.10792378 122.35840873 20.15213346 120.22000647 C20.97972373 80.18132497 21.60190767 40.14221791 22.05859375 0.09765625 C28.65859375 0.09765625 35.25859375 0.09765625 42.05859375 0.09765625 C42.91130859 3.59552734 42.91130859 3.59552734 43.78125 7.1640625 C47.76356705 23.41773207 51.77313864 39.61919347 56.91943359 55.55078125 C57.78417379 58.24322564 58.63800937 60.93804926 59.48291016 63.63671875 C70.24426185 97.98778825 82.35165045 131.66208437 98.05859375 164.09765625 C98.50122559 165.02384766 98.94385742 165.95003906 99.39990234 166.90429688 C111.40054913 191.94987543 125.801751 214.98492246 143.58203125 236.3125 C145.65261115 238.81582014 147.66126189 241.3677962 149.68359375 243.91015625 C156.67439248 252.44021342 164.66031582 259.97271177 173.05859375 267.09765625 C174.16743216 268.05771033 175.2754291 269.01873673 176.3828125 269.98046875 C182.45838405 275.24368035 188.5296278 280.39680077 195.05859375 285.09765625 C191.5095503 323.01401913 169.85312032 361.07872937 145.05859375 389.09765625 C144.30964844 389.9690625 143.56070312 390.84046875 142.7890625 391.73828125 C124.52443802 412.66855362 101.62385872 427.59863131 76.05859375 438.09765625 C74.94355469 438.60296875 73.82851563 439.10828125 72.6796875 439.62890625 C68.43304075 441.35138648 64.18118055 442.53358849 59.74609375 443.66015625 C58.90377197 443.87704102 58.0614502 444.09392578 57.19360352 444.31738281 C15.65407093 454.90203317 -28.09759765 449.21811838 -65.44140625 428.09765625 C-85.71522665 415.99101469 -104.56266891 400.92951 -118.94140625 382.09765625 C-120.1015625 380.67839844 -120.1015625 380.67839844 -121.28515625 379.23046875 C-139.7016788 356.32637583 -152.26979081 328.91600716 -159.94140625 300.66015625 C-160.16151367 299.8609375 -160.38162109 299.06171875 -160.60839844 298.23828125 C-162.29731822 291.68629093 -162.29731822 291.68629093 -160.94140625 288.09765625 C-158.88722613 286.43234549 -156.89292548 284.97842691 -154.69140625 283.53515625 C-141.81532913 275.01598429 -130.73934106 264.30705339 -119.87890625 253.41015625 C-119.26411407 252.79482025 -118.6493219 252.17948425 -118.01589966 251.54550171 C-109.12494864 242.61837391 -100.82818851 233.69227763 -93.94140625 223.09765625 C-93.00169734 221.69374577 -92.0615768 220.29011075 -91.12109375 218.88671875 C-88.32281335 214.66768523 -85.62107764 210.39268772 -82.94140625 206.09765625 C-82.39202393 205.22850586 -82.39202393 205.22850586 -81.83154297 204.34179688 C-62.21970643 173.2327377 -47.39401981 139.62021136 -34.94140625 105.09765625 C-34.66343201 104.32947571 -34.38545776 103.56129517 -34.09906006 102.76983643 C-26.61389248 82.06982622 -19.44418831 61.4254065 -13.94140625 40.09765625 C-13.49407119 38.42006949 -13.04490406 36.74297 -12.59375 35.06640625 C-10.85193843 28.56490949 -9.17125848 22.05039369 -7.55859375 15.515625 C-7.32994629 14.59048096 -7.10129883 13.66533691 -6.86572266 12.7121582 C-6.42425065 10.91861825 -5.9862874 9.1242101 -5.55224609 7.32885742 C-3.78533205 0.12567503 -3.78533205 0.12567503 0 0 Z " fill="#CDAF57" transform="translate(613.94140625,795.90234375)"/>
<path d="M0 0 C7.73831702 1.20566542 15.02361813 3.05116855 22.4375 5.5625 C23.47664551 5.91328613 24.51579102 6.26407227 25.58642578 6.62548828 C53.4840058 16.2625244 77.87562864 30.59595684 100 50 C100.92039062 50.79664063 101.84078125 51.59328125 102.7890625 52.4140625 C107.96777479 56.96694853 112.64833079 61.65443103 117 67 C117.83273437 68.00675781 118.66546875 69.01351562 119.5234375 70.05078125 C141.93491572 97.54527515 157.76862301 132.12945295 159 168 C159.03996094 169.04929687 159.07992188 170.09859375 159.12109375 171.1796875 C160.05435961 221.35645199 140.60244716 265.04280776 106 301 C103.42500436 303.45358131 100.73766406 305.7309451 98 308 C97.12988281 308.75796875 96.25976562 309.5159375 95.36328125 310.296875 C72.74049115 329.74824593 45.39483324 343.70622519 16.875 352.1875 C15.86163574 352.49131592 14.84827148 352.79513184 13.80419922 353.1081543 C12.85561035 353.37539307 11.90702148 353.64263184 10.9296875 353.91796875 C9.68034424 354.27024536 9.68034424 354.27024536 8.40576172 354.62963867 C5.61923651 355.05861764 3.69050754 354.82203664 1 354 C-1.0703125 351.734375 -1.0703125 351.734375 -3.125 348.75 C-11.46048469 336.98215056 -21.09912248 326.52066171 -31.3125 316.375 C-31.85770294 315.8309552 -32.40290588 315.2869104 -32.96463013 314.72637939 C-40.86749745 306.85661475 -48.86207798 299.42431258 -58 293 C-58.78890625 292.41605469 -59.5778125 291.83210938 -60.390625 291.23046875 C-73.80127023 281.4917859 -88.20698492 273.03871318 -102.7890625 265.19580078 C-104.92157737 264.04241542 -107.03936277 262.86535603 -109.15625 261.68359375 C-119.5703838 255.95254902 -130.32360305 251.05349154 -141.1875 246.25 C-142.25677734 245.77549911 -142.25677734 245.77549911 -143.34765625 245.29141235 C-160.03730058 237.90588935 -177.09989565 231.86062548 -194.375 226 C-196.12507206 225.40385733 -197.87507229 224.80750376 -199.625 224.2109375 C-203.91285649 222.75039351 -208.20308357 221.29698804 -212.49465942 219.84741211 C-214.9817855 219.00616091 -217.46732543 218.16033166 -219.95288086 217.31445312 C-227.5148394 214.75240067 -235.02122811 212.28071294 -242.8125 210.5 C-249.92988659 208.79685059 -256.971762 206.91525319 -264 204.875 C-271.30050018 202.75640771 -278.59993776 200.74659854 -286 199 C-287.18956883 194.84773144 -286.78960563 192.61274007 -285.0625 188.6875 C-284.68222656 187.80449219 -284.30195312 186.92148437 -283.91015625 186.01171875 C-283.60980469 185.34785156 -283.30945313 184.68398438 -283 184 C-270.29185756 183.69983768 -257.58349664 183.40975101 -244.875 183.125 C-243.88646908 183.10281025 -242.89793816 183.0806205 -241.87945175 183.05775833 C-213.82602491 182.42977891 -185.77183441 181.89436299 -157.71484375 181.45703125 C-157.01156039 181.44604243 -156.30827703 181.43505362 -155.58368206 181.4237318 C-141.53682305 181.20434191 -127.48989505 180.98987175 -113.44279498 180.78646713 C-107.4705394 180.69991131 -101.49832888 180.61053967 -95.52612495 180.52048302 C-91.91498318 180.46699805 -88.30380516 180.41699033 -84.69261169 180.36714172 C-73.82459481 180.20783574 -62.97345653 179.94982665 -52.11425781 179.47705078 C-41.20359388 179.00399053 -30.3219022 178.86821386 -19.40234375 178.90234375 C-17.57719462 178.90421857 -15.75204497 178.9056374 -13.92689514 178.90663147 C-9.22049464 178.91037317 -4.5141271 178.92012736 0.19226074 178.93133545 C5.03376825 178.94173379 9.87528132 178.94616772 14.71679688 178.95117188 C24.1445454 178.96176106 33.57226992 178.97873107 43 179 C43 178.34 43 177.68 43 177 C42.01568497 177.00222061 41.03136993 177.00444122 40.01722717 177.00672913 C30.62140097 177.0272328 21.22557946 177.04210069 11.82973576 177.05181217 C7.00228486 177.05697316 2.1748524 177.06394308 -2.65258789 177.07543945 C-7.33404781 177.08651506 -12.01549032 177.09232749 -16.69696236 177.09487724 C-18.45980668 177.09668806 -20.22265034 177.10022018 -21.98548698 177.10573006 C-31.77328083 177.13503202 -41.52633921 176.9742948 -51.30493164 176.53881836 C-68.17089348 175.79588879 -85.0473631 175.59210845 -101.92610359 175.32575035 C-106.69145627 175.24981526 -111.45674752 175.17019942 -116.2220459 175.09094238 C-126.2737411 174.92429493 -136.32549169 174.76121243 -146.3772583 174.59893799 C-161.43165463 174.35585602 -176.48599885 174.10960083 -191.54029703 173.86051702 C-197.14100344 173.76797619 -202.74173409 173.67716177 -208.34249163 173.58777189 C-233.23197833 173.1890407 -258.11569529 172.64538706 -283 172 C-283.83698386 169.54285453 -284.66972424 167.08441143 -285.5 164.625 C-285.73847656 163.92632813 -285.97695313 163.22765625 -286.22265625 162.5078125 C-288 157.2265625 -288 157.2265625 -288 155 C-277.13341163 151.80793967 -266.2610189 148.7802296 -255.25 146.125 C-243.63436423 143.30174862 -232.32378892 139.71450421 -220.97851562 135.96630859 C-217.8562021 134.95334819 -214.7220412 133.98786865 -211.58203125 133.03125 C-151.52265346 114.64254585 -86.26222214 88.71648316 -40 45 C-38.63002152 43.80671034 -37.25516907 42.6189883 -35.875 41.4375 C-29.02655423 35.45716707 -22.89136688 28.91191862 -17 22 C-16.10965049 20.97371927 -15.21900317 19.94769685 -14.328125 18.921875 C-9.09840693 12.86294678 -4.24496589 6.80729579 0 0 Z " fill="#CDAF57" transform="translate(1086,452)"/>
<path d="M0 0 C2.61883998 1.50655929 4.92511428 3.14714201 7.27734375 5.04296875 C8.06753906 5.67460938 8.85773438 6.30625 9.671875 6.95703125 C10.26355469 7.43914063 10.85523438 7.92125 11.46484375 8.41796875 C9.88223585 12.13970601 7.5739119 14.71087993 4.83984375 17.66796875 C4.36836914 18.17811523 3.89689453 18.68826172 3.41113281 19.21386719 C-1.51494722 24.49158582 -6.63634732 29.57674594 -11.78759766 34.63378906 C-14.97068266 37.7746454 -18.04145339 40.94784235 -20.95703125 44.33984375 C-25.62671304 49.75836215 -30.76610915 54.69538217 -35.86328125 59.70703125 C-39.37647025 63.18437139 -42.81240889 66.66799774 -46.03515625 70.41796875 C-50.67317637 75.81474332 -55.79268528 80.72151239 -60.86328125 85.70703125 C-64.37647025 89.18437139 -67.81240889 92.66799774 -71.03515625 96.41796875 C-75.67317637 101.81474332 -80.79268528 106.72151239 -85.86328125 111.70703125 C-89.37647025 115.18437139 -92.81240889 118.66799774 -96.03515625 122.41796875 C-100.67317637 127.81474332 -105.79268528 132.72151239 -110.86328125 137.70703125 C-114.37647025 141.18437139 -117.81240889 144.66799774 -121.03515625 148.41796875 C-125.67317637 153.81474332 -130.79268528 158.72151239 -135.86328125 163.70703125 C-139.37647025 167.18437139 -142.81240889 170.66799774 -146.03515625 174.41796875 C-150.67317637 179.81474332 -155.79268528 184.72151239 -160.86328125 189.70703125 C-165.01166895 193.81308846 -168.95815602 197.99607044 -172.76171875 202.421875 C-176.6922969 206.84593983 -180.99852725 210.91777319 -185.21875 215.0625 C-189.28296405 219.08261769 -193.14170345 223.19233098 -196.86962891 227.52539062 C-199.44454026 230.45132331 -202.19517967 233.18579605 -204.97265625 235.91796875 C-205.51341797 236.45421875 -206.05417969 236.99046875 -206.61132812 237.54296875 C-207.91692242 238.83700911 -209.22568621 240.12785049 -210.53515625 241.41796875 C-204.99374848 236.80676673 -199.88863514 231.88857083 -194.8203125 226.765625 C-194.00574081 225.94726669 -193.19116913 225.12890839 -192.35191345 224.28575134 C-188.89395185 220.81156208 -185.44198624 217.33143767 -181.98950195 213.85180664 C-179.4560332 211.30015452 -176.91949296 208.75158365 -174.3828125 206.203125 C-173.23088158 205.03874657 -173.23088158 205.03874657 -172.05567932 203.85084534 C-167.92619422 199.70286677 -163.70456844 195.74520327 -159.26878357 191.92674255 C-157.19456801 190.1215552 -155.2423524 188.22373881 -153.31640625 186.26171875 C-152.61128906 185.54886719 -151.90617188 184.83601562 -151.1796875 184.1015625 C-150.47199219 183.38097656 -149.76429688 182.66039062 -149.03515625 181.91796875 C-144.35188401 177.14939101 -139.61549273 172.56820909 -134.54882812 168.20898438 C-130.88026071 164.94605875 -127.47403026 161.41948163 -124.03515625 157.91796875 C-119.98567161 153.79472301 -115.95156677 149.71785175 -111.56640625 145.94921875 C-106.98336964 142.00609483 -102.77175536 137.72686477 -98.53515625 133.41796875 C-93.67869279 128.47863049 -88.78493849 123.70645734 -83.53125 119.19140625 C-79.86720137 115.93606754 -76.46810582 112.41344927 -73.03515625 108.91796875 C-68.35188401 104.14939101 -63.61549273 99.56820909 -58.54882812 95.20898438 C-54.88026071 91.94605875 -51.47403026 88.41948163 -48.03515625 84.91796875 C-43.98567161 80.79472301 -39.95156677 76.71785175 -35.56640625 72.94921875 C-30.98336964 69.00609483 -26.77175536 64.72686477 -22.53515625 60.41796875 C-17.67869279 55.47863049 -12.78493849 50.70645734 -7.53125 46.19140625 C-3.86720137 42.93606754 -0.46810582 39.41344927 2.96484375 35.91796875 C7.73278842 31.06317627 12.54134414 26.36089232 17.72070312 21.94335938 C19.37540058 20.49619396 20.92991115 18.99062627 22.46484375 17.41796875 C25.5033708 18.8277358 28.05880325 20.50667103 30.71484375 22.54296875 C31.77445313 23.35121094 31.77445313 23.35121094 32.85546875 24.17578125 C33.3865625 24.58570313 33.91765625 24.995625 34.46484375 25.41796875 C33.88241914 29.4793853 32.58521091 32.26224642 30.4375 35.7421875 C29.81552734 36.76094971 29.19355469 37.77971191 28.55273438 38.8293457 C27.88435547 39.91046631 27.21597656 40.99158691 26.52734375 42.10546875 C25.14111356 44.3828702 23.75658302 46.66119412 22.375 48.94140625 C21.36203857 50.61154785 21.36203857 50.61154785 20.32861328 52.31542969 C16.66872183 58.40789768 13.23230179 64.61493612 9.84912109 70.86425781 C8.84594745 72.71490972 7.83781662 74.56287731 6.82666016 76.40917969 C-26.20909678 136.75268304 -61.42373968 208.13769281 -61.73828125 278.3046875 C-61.74398132 279.32359573 -61.7496814 280.34250397 -61.7555542 281.39228821 C-61.76494891 283.5428465 -61.77151601 285.69341882 -61.77539062 287.84399414 C-61.78499576 291.05186921 -61.81603116 294.25907433 -61.84765625 297.46679688 C-61.91454402 310.94403381 -60.92041962 323.94151192 -58.80657959 337.25422668 C-58.53515625 339.41796875 -58.53515625 339.41796875 -58.53515625 343.41796875 C-84.27390145 358.30789502 -111.01140511 369.71700184 -140.53515625 374.41796875 C-141.55472412 374.59457031 -142.57429199 374.77117187 -143.62475586 374.953125 C-152.33732121 376.35859854 -160.81188627 376.72871184 -169.61108398 376.67871094 C-171.83540405 376.6680276 -174.05890787 376.67865817 -176.28320312 376.69140625 C-190.48293917 376.70744573 -204.36377659 375.46282393 -218.09765625 371.66796875 C-219.56404541 371.27001099 -219.56404541 371.27001099 -221.06005859 370.86401367 C-248.3245272 363.29403508 -272.08079389 350.05822713 -292.53515625 330.41796875 C-293.87126953 329.15919922 -293.87126953 329.15919922 -295.234375 327.875 C-319.83577849 304.09707445 -336.08597984 271.07044655 -341.53515625 237.41796875 C-341.71103271 236.4014624 -341.88690918 235.38495605 -342.06811523 234.33764648 C-343.57305113 224.96475316 -343.89454257 215.82034018 -343.84765625 206.35546875 C-343.84583344 205.58861755 -343.84401062 204.82176636 -343.84213257 204.03167725 C-343.79259398 191.61346572 -343.07264707 179.60535147 -340.53515625 167.41796875 C-340.3635498 166.5667041 -340.19194336 165.71543945 -340.01513672 164.83837891 C-334.56650645 138.4035141 -324.59620805 112.90165925 -309.53515625 90.41796875 C-308.86871094 90.47855469 -308.20226562 90.53914062 -307.515625 90.6015625 C-306.13310547 90.72724609 -306.13310547 90.72724609 -304.72265625 90.85546875 C-303.38267578 90.97728516 -303.38267578 90.97728516 -302.015625 91.1015625 C-300.86707031 91.20597656 -299.71851563 91.31039062 -298.53515625 91.41796875 C-297.37927505 91.53617477 -297.37927505 91.53617477 -296.20004272 91.6567688 C-289.40827474 92.32702706 -282.66633086 92.63308536 -275.84375 92.7265625 C-274.20635109 92.74938797 -274.20635109 92.74938797 -272.53587341 92.77267456 C-247.44535557 93.05743159 -223.97481528 92.22000538 -199.53515625 86.41796875 C-197.79134932 86.04998965 -196.04665426 85.68617342 -194.30078125 85.328125 C-135.19964179 72.57279118 -78.73107779 43.06039632 -26.47265625 13.66796875 C-25.50755127 13.1260791 -24.54244629 12.58418945 -23.5480957 12.02587891 C-19.42487346 9.69329891 -15.34247088 7.34029976 -11.375 4.75 C-10.77631104 4.36102539 -10.17762207 3.97205078 -9.56079102 3.57128906 C-8.04761773 2.57131003 -6.55211591 1.54472315 -5.05859375 0.515625 C-2.53515625 -0.58203125 -2.53515625 -0.58203125 0 0 Z " fill="#CDAF57" transform="translate(493.53515625,735.58203125)"/>
<path d="M0 0 C20.17011507 1.96720875 40.32370483 8.75814881 59.54052734 14.90673828 C63.22269578 16.07037627 66.91629001 17.19328549 70.61328125 18.30859375 C139.62342775 39.20958597 218.07802153 69.70910218 265 127 C265.91480296 128.07840665 266.83166594 129.15506747 267.75 130.23046875 C279 143.42335035 279 143.42335035 279 146 C276.58474366 146.48734233 274.16814327 146.96486291 271.75 147.4375 C271.08742188 147.57220703 270.42484375 147.70691406 269.7421875 147.84570312 C237.91020651 154.00188813 201.15907108 150.44254161 170 142 C169.24589844 141.80212891 168.49179687 141.60425781 167.71484375 141.40039062 C114.40299219 127.31392578 63.55922486 104.15377459 15.89257812 76.66015625 C12.8488785 74.91326585 9.79361359 73.18827262 6.734375 71.46875 C5.70143311 70.88802734 4.66849121 70.30730469 3.60424805 69.70898438 C1.63998429 68.60537684 -0.3246691 67.50246239 -2.28979492 66.40039062 C-7.61749672 63.39746047 -12.83995124 60.28311874 -18 57 C-15.969295 49.29882546 -13.69927222 41.70273608 -11.25 34.125 C-10.90582031 33.05451416 -10.56164062 31.98402832 -10.20703125 30.88110352 C-6.87946366 20.56244439 -3.4576487 10.27569972 0 0 Z " fill="#CDAF57" transform="translate(793,665)"/>
<path d="M0 0 C6.10751318 3.69633062 11.93462405 7.61618961 17.5625 12 C18.11824707 12.42450439 18.67399414 12.84900879 19.24658203 13.28637695 C21.69912186 15.16636887 24.07062433 17.06509209 26.34375 19.16015625 C34.2820241 25.96638774 44.0408254 25.11452326 54 25 C52.08552807 42.61314175 46.45528045 59.5920589 41.12548828 76.41162109 C39.95339097 80.14860293 38.81522039 83.89517187 37.68359375 87.64453125 C18.94541897 149.46959427 -6.38683947 214.10772902 -51 262 C-52.21338219 263.39144666 -53.42197803 264.78708639 -54.625 266.1875 C-62.48461864 275.18540823 -71.43684515 282.79410631 -80.6875 290.3125 C-81.32945312 290.84061279 -81.97140625 291.36872559 -82.6328125 291.9128418 C-85.95560186 294.58842985 -88.86872224 296.69663321 -93 298 C-105.02486829 219.27335785 -77.07559447 145.61692809 -43 76 C-42.54125488 75.05527832 -42.08250977 74.11055664 -41.60986328 73.13720703 C-34.62290525 58.76324548 -26.9988042 44.83346379 -19 31 C-18.07888428 29.39850098 -18.07888428 29.39850098 -17.13916016 27.76464844 C-15.26463168 24.50673432 -13.38376712 21.25257979 -11.5 18 C-10.92467529 17.00307129 -10.34935059 16.00614258 -9.7565918 14.97900391 C-6.7307503 9.78562745 -3.58975862 4.82206382 0 0 Z " fill="#CDAF57" transform="translate(541,771)"/>
<path d="M0 0 C1.06686035 0.12600586 2.1337207 0.25201172 3.23291016 0.38183594 C8.70870458 1.11048819 8.70870458 1.11048819 10.6875 1.625 C11.0175 2.285 11.3475 2.945 11.6875 3.625 C1.0259676 17.81082274 -10.68853387 31.19589634 -24.3125 42.625 C-24.86953613 43.09969727 -25.42657227 43.57439453 -26.00048828 44.06347656 C-36.24190362 52.76448341 -46.95694852 60.44647332 -58.3125 67.625 C-58.93946777 68.02138672 -59.56643555 68.41777344 -60.21240234 68.82617188 C-64.52274859 71.52584057 -68.90151116 74.09388305 -73.3125 76.625 C-74.04726563 77.05184082 -74.78203125 77.47868164 -75.5390625 77.91845703 C-120.19871293 103.70277254 -170.26311805 121.59753446 -219.9375 135.0625 C-220.66130859 135.26077393 -221.38511719 135.45904785 -222.13085938 135.66333008 C-223.68882828 136.08979942 -225.24710297 136.51515308 -226.80566406 136.93945312 C-229.53668012 137.68630676 -232.26448669 138.4442564 -234.9921875 139.203125 C-236.93224101 139.73976649 -238.87234446 140.2762275 -240.8125 140.8125 C-242.15562256 141.18749634 -242.15562256 141.18749634 -243.52587891 141.57006836 C-258.28029751 145.625 -258.28029751 145.625 -265.3125 145.625 C-268.8900242 136.15661379 -272.03222903 126.54610869 -275.16845703 116.92504883 C-276.06900433 114.16758381 -276.97783696 111.41293054 -277.88671875 108.65820312 C-278.46144892 106.89860446 -279.03568573 105.13884456 -279.609375 103.37890625 C-279.88118591 102.55910782 -280.15299683 101.73930939 -280.43304443 100.89466858 C-280.68040344 100.12964523 -280.92776245 99.36462189 -281.18261719 98.57641602 C-281.40149597 97.90788101 -281.62037476 97.23934601 -281.84588623 96.55055237 C-282.3125 94.625 -282.3125 94.625 -282.3125 90.625 C-265.14489312 80.61727073 -247.86538922 70.84120998 -230.421875 61.32275391 C-227.8400817 59.91306557 -225.26321309 58.49495868 -222.6875 57.07421875 C-209.56813709 49.90822031 -195.93312701 43.76602289 -182.3125 37.625 C-181.17345215 37.11001953 -180.0344043 36.59503906 -178.86083984 36.06445312 C-152.91865134 24.41801056 -126.02315829 14.19145762 -98.3125 7.625 C-97.37937988 7.40263672 -96.44625977 7.18027344 -95.48486328 6.95117188 C-63.95408961 -0.4554211 -32.32451875 -3.85300311 0 0 Z " fill="#CDAF57" transform="translate(1058.3125,446.375)"/>
<path d="M0 0 C26.49976228 11.94012278 47.98094515 44.26642295 63 68 C63.35980957 68.56799316 63.71961914 69.13598633 64.09033203 69.72119141 C88.73381925 108.98655602 107.58314545 152.87575009 120.8828125 197.28125 C121.75482353 200.18388813 122.64751726 203.07707711 123.5546875 205.96875 C127.85513169 219.75697303 131.59311395 233.64568666 135.14160156 247.64453125 C136.00186904 251.00730607 136.88354354 254.36370228 137.7734375 257.71875 C138.05372803 258.77771484 138.33401855 259.83667969 138.62280273 260.92773438 C139.1536795 262.92969818 139.68692864 264.93103485 140.22290039 266.93164062 C140.5746936 268.26485352 140.5746936 268.26485352 140.93359375 269.625 C141.2438147 270.78902344 141.2438147 270.78902344 141.56030273 271.9765625 C142 274 142 274 142 277 C140.99324219 276.90976562 139.98648438 276.81953125 138.94921875 276.7265625 C125.56264122 276.17227956 118.20372314 281.93132737 108.19335938 290.21142578 C105.06079234 292.76587659 101.81127253 295.12208459 98.5 297.4375 C96.99953125 298.51837891 96.99953125 298.51837891 95.46875 299.62109375 C94.6540625 300.07613281 93.839375 300.53117187 93 301 C89.05008543 299.68336181 88.62069466 298.14641904 86.55078125 294.578125 C86.22144089 294.01537369 85.89210052 293.45262238 85.55278015 292.87281799 C84.46304104 291.00396092 83.38731478 289.1274749 82.3125 287.25 C81.54915324 285.92909266 80.78547623 284.60837613 80.02148438 283.2878418 C77.66397552 279.20152391 75.32991759 275.10209477 73 271 C72.64903259 270.3837677 72.29806519 269.7675354 71.9364624 269.13262939 C39.67712254 212.4698511 9.75596509 150.66640387 -0.56201172 85.75341797 C-0.85073457 83.9383587 -1.14902243 82.12479141 -1.45751953 80.31298828 C-5.1993278 58.12450925 -5.97204243 34.22196708 -2 12 C-1.80921875 10.80890625 -1.6184375 9.6178125 -1.421875 8.390625 C-0.97003186 5.58919752 -0.49735079 2.79362999 0 0 Z " fill="#CDAF57" transform="translate(449,187)"/>
<path d="M0 0 C2.16020284 3.24030425 3.20091869 6.15240128 4.4609375 9.8359375 C4.80869736 10.84873276 4.80869736 10.84873276 5.16348267 11.88198853 C5.65465866 13.31531869 6.14373232 14.74937075 6.63085938 16.18408203 C7.3610853 18.33403199 8.09788899 20.48163089 8.8359375 22.62890625 C12.60652604 33.63795413 16.33247908 44.66303609 19 56 C2.16118561 65.97460696 -14.71379833 75.8143571 -32 85 C-33.46928955 85.78890625 -33.46928955 85.78890625 -34.96826172 86.59375 C-84.17013172 112.96327805 -137.46613186 136.75614555 -192.92382812 145.66015625 C-194.37260522 145.89730321 -195.81913469 146.14841957 -197.26367188 146.41015625 C-220.54798513 150.60246569 -247.66348038 151.50597876 -271 147 C-271.33 146.34 -271.66 145.68 -272 145 C-266.19920776 137.19850067 -260.17608899 129.80151193 -253.5234375 122.7109375 C-251.42580917 120.45744824 -249.4194089 118.16659836 -247.4375 115.8125 C-224.27014587 89.27337132 -190.50242851 70.27715474 -159.16650391 55.05664062 C-156.92113609 53.96153674 -154.68544466 52.84801267 -152.44921875 51.734375 C-125.96895666 38.6929326 -97.75827136 27.3347114 -69.4375 19.01171875 C-66.63562824 18.18707695 -63.84898779 17.33145865 -61.0625 16.45703125 C-46.16333579 11.8057062 -31.1351443 7.8056858 -16 4 C-15.09314453 3.77119141 -14.18628906 3.54238281 -13.25195312 3.30664062 C-8.83729352 2.19355733 -4.42045648 1.08988284 0 0 Z " fill="#CDAF57" transform="translate(466,666)"/>
<path d="M0 0 C0.31932434 1.60282217 0.62994514 3.2073779 0.9375 4.8125 C1.11152344 5.70582031 1.28554688 6.59914062 1.46484375 7.51953125 C5.65260583 34.75526855 2.89096777 62.09925585 -2 89 C-2.20866699 90.15129395 -2.41733398 91.30258789 -2.63232422 92.48876953 C-6.4391692 112.54663292 -13.21571556 131.79166117 -20 151 C-20.36883301 152.04559082 -20.73766602 153.09118164 -21.11767578 154.16845703 C-23.26450569 160.17466028 -25.57689977 166.10023175 -28 172 C-28.4223291 173.03495605 -28.8446582 174.06991211 -29.27978516 175.13623047 C-41.60181489 205.06854823 -55.99321033 234.37052257 -72.40087891 262.27685547 C-74.20220543 265.34433578 -75.98249322 268.42355716 -77.76171875 271.50390625 C-88.05713283 289.28332462 -88.05713283 289.28332462 -92 295 C-97.23855771 293.35121092 -101.26367711 290.09525007 -105.625 286.875 C-106.43042236 286.29331055 -107.23584473 285.71162109 -108.06567383 285.11230469 C-111.491724 282.63026814 -114.88500059 280.15339674 -118.09765625 277.3984375 C-125.51653186 271.2440158 -131.58655425 270.79674071 -141 271 C-133.12714399 223.03773248 -115.62333923 174.30554577 -96 130 C-95.56220215 128.99952637 -95.1244043 127.99905273 -94.67333984 126.96826172 C-81.88265077 97.81838083 -66.67629788 70.07428333 -47 45 C-46.25363281 44.03964844 -45.50726562 43.07929688 -44.73828125 42.08984375 C-35.51141998 30.50936538 -25.29419215 19.58083173 -14 10 C-13.22897949 9.33581055 -13.22897949 9.33581055 -12.44238281 8.65820312 C-2.38865312 0 -2.38865312 0 0 0 Z " fill="#CDAF57" transform="translate(812,193)"/>
<path d="M0 0 C3.05544635 2.84772595 5.20448374 5.68721508 7.328125 9.27734375 C7.95444824 10.33236084 8.58077148 11.38737793 9.22607422 12.47436523 C9.90135141 13.62837199 10.57597389 14.78276207 11.25 15.9375 C11.59903381 16.53200958 11.94806763 17.12651917 12.30767822 17.73904419 C43.17721386 70.33523864 71.4915785 125.72661794 87 185 C87.26651367 186.00885254 87.53302734 187.01770508 87.80761719 188.05712891 C96.783754 222.63528684 99.72278191 257.53696798 95 293 C90.77175501 292.48287651 88.14390743 289.88876686 85.0625 287.1875 C84.49474854 286.69685059 83.92699707 286.20620117 83.34204102 285.70068359 C81.5519288 284.14417153 79.77424845 282.57456006 78 281 C77.44538086 280.50999512 76.89076172 280.01999023 76.31933594 279.51513672 C16.32870035 226.22387229 -16.85934167 141.58668105 -36.38525391 65.32568359 C-37.37390291 61.58546501 -38.50328094 57.88951359 -39.625 54.1875 C-41.36092682 48.39299568 -42.91023053 42.57186617 -44.3125 36.6875 C-44.48410645 35.97553467 -44.65571289 35.26356934 -44.83251953 34.5300293 C-45.5991502 31.22568323 -46 28.41713592 -46 25 C-44.90558594 25.11794922 -44.90558594 25.11794922 -43.7890625 25.23828125 C-32.41208801 25.50514855 -25.8245886 19.57247633 -17.26757812 12.78076172 C-13.70782166 9.98523377 -10.03926226 7.34349314 -6.375 4.6875 C-5.13202152 3.77581701 -3.88975076 2.86316774 -2.6484375 1.94921875 C-1.77445313 1.30597656 -0.90046875 0.66273438 0 0 Z " fill="#CDAF57" transform="translate(718,771)"/>
<path d="M0 0 C0.96019043 0.32838867 1.92038086 0.65677734 2.90966797 0.99511719 C31.92053908 10.96361035 59.61852877 23.26051918 87 37 C87.64769348 37.32438049 88.29538696 37.64876099 88.96270752 37.98297119 C105.46144463 46.25396701 121.58872928 55.04153847 137.44873047 64.48876953 C141.10988917 66.65743674 144.80064568 68.7723363 148.5 70.875 C149.5828125 71.49117187 150.665625 72.10734375 151.78125 72.7421875 C152.5134375 73.15726563 153.245625 73.57234375 154 74 C153.37364984 79.73465838 151.90622551 84.89719179 150.09375 90.36328125 C149.66660706 91.67307198 149.66660706 91.67307198 149.23083496 93.00932312 C148.63168169 94.84311671 148.02978709 96.67601667 147.42529297 98.50805664 C146.49777083 101.31925632 145.57823937 104.13297078 144.66015625 106.94726562 C144.07597919 108.73192093 143.4913594 110.5164314 142.90625 112.30078125 C142.63018921 113.14345047 142.35412842 113.98611969 142.06970215 114.85432434 C141.8127356 115.63240952 141.55576904 116.41049469 141.29101562 117.2121582 C141.06530884 117.89719925 140.83960205 118.5822403 140.60705566 119.28804016 C140 121 140 121 139 123 C124.39747015 120.15620671 109.98060095 116.74992156 95.76367188 112.35668945 C91.36785542 111.00097431 86.96882743 109.70387556 82.5234375 108.51953125 C20.30006883 91.90983426 -42.68170933 66.41885221 -94 27 C-94.91394531 26.30003906 -95.82789063 25.60007812 -96.76953125 24.87890625 C-109.0907428 15.10691088 -120.92387661 4.08687972 -131 -8 C-131.73605469 -8.85207031 -132.47210938 -9.70414062 -133.23046875 -10.58203125 C-135 -13 -135 -13 -135 -16 C-88.97639248 -21.74653739 -43.71066828 -15.15098493 0 0 Z " fill="#CDAF57" transform="translate(330,463)"/>
<path d="M0 0 C8.08581333 6.1245735 12.62774387 13.76604412 15.8359375 23.390625 C16.64260793 36.52216171 15.93527699 46.50713756 7.8359375 57.390625 C7.2584375 58.215625 6.6809375 59.040625 6.0859375 59.890625 C-0.65930029 67.38533366 -8.75992755 72.14226167 -18.8984375 72.7734375 C-32.32374713 73.24003195 -41.45605103 71.46369274 -51.90625 62.5859375 C-60.46307092 54.26598359 -64.52183118 43.7636443 -64.7265625 31.953125 C-64.59021058 20.38105224 -60.62996601 11.89187563 -52.546875 3.58203125 C-37.45037856 -10.3017958 -17.00917621 -11.5245847 0 0 Z " fill="#CDAE57" transform="translate(654.1640625,492.609375)"/>
<path d="M0 0 C10.4794824 6.27239093 18.51374141 14.48533508 21.67578125 26.6015625 C23.09293279 39.40994338 21.84163052 51.41137805 13.98828125 61.9765625 C10.06059153 66.50683678 5.94017695 69.76074189 0.67578125 72.6015625 C-0.03707031 73.0140625 -0.74992188 73.4265625 -1.484375 73.8515625 C-10.13094556 78.12293869 -21.14131439 77.98765441 -30.42578125 75.90625 C-39.93128799 72.4042212 -48.70974653 65.23372492 -53.578125 56.30078125 C-54.58637877 54.08708756 -55.4952065 51.88822188 -56.32421875 49.6015625 C-56.68 48.66828125 -57.03578125 47.735 -57.40234375 46.7734375 C-60.12090746 37.41973524 -58.9618549 27.94542186 -54.80859375 19.25390625 C-43.91829073 -0.20534573 -20.99302742 -10.39488771 0 0 Z " fill="#CDAE57" transform="translate(543.32421875,593.3984375)"/>
<path d="M0 0 C0.80695312 0.53109375 1.61390625 1.0621875 2.4453125 1.609375 C11.05515423 7.80391459 16.71743801 15.54894371 19 26 C20.15062164 37.54143951 19.07699807 48.5569809 12.25 58.3125 C5.44228937 66.51579131 -3.19200728 73.39942703 -14 75 C-27.18957574 75.79211139 -37.75783912 73.5209626 -48.30078125 65.1796875 C-55.97968546 58.03584818 -60.41930045 48.62402624 -61.3359375 38.16796875 C-61.41596009 30.01366677 -61.06750698 23.25795777 -57 16 C-56.5875 15.23300781 -56.175 14.46601562 -55.75 13.67578125 C-50.89982934 5.56001273 -43.13853857 -1.19806798 -34.16015625 -4.37109375 C-22.60569825 -6.67055943 -10.03388075 -6.68925384 0 0 Z " fill="#CDAE57" transform="translate(651,700)"/>
<path d="M0 0 C8.70982671 6.1017995 14.62598345 14.09333332 16.94921875 24.515625 C18.98204893 36.52946822 17.03144538 46.96811274 10.35546875 57.29296875 C4.07119399 65.96348936 -4.00420209 70.72773052 -14.30078125 73.578125 C-27.33427977 74.69565329 -37.58402356 73.51930852 -48.17578125 65.265625 C-57.01976733 57.51612937 -61.87347146 49.15733882 -62.6875 37.15234375 C-63.1722983 24.38064631 -60.85329404 15.73328736 -52.4296875 5.8359375 C-38.21115295 -9.24353584 -17.27204762 -10.67406678 0 0 Z " fill="#CDAE57" transform="translate(757.30078125,596.421875)"/>
<path d="M0 0 C7.93778914 4.64943205 13.78586469 11.0795116 16.80859375 19.8359375 C19.10299087 29.78307534 17.68683514 38.8217466 12.4375 47.5625 C6.91643385 54.57404408 0.35191925 59.79903049 -8.5625 61.5625 C-20.06962372 62.51363082 -28.06900122 60.80864715 -36.9375 53.3125 C-43.59207358 46.97132863 -46.55668626 40.29735408 -46.95678711 31.13037109 C-47.15702433 21.5483977 -45.33678576 14.19638952 -38.95703125 6.66796875 C-37.25003184 5.06638973 -35.53240203 3.82434487 -33.5625 2.5625 C-32.87929688 2.07910156 -32.19609375 1.59570312 -31.4921875 1.09765625 C-22.15132912 -4.61768252 -9.82971526 -4.46012429 0 0 Z " fill="#CDAE57" transform="translate(741.5625,676.4375)"/>
<path d="M0 0 C7.42708034 6.633897 11.17884059 13.57437273 12.2734375 23.47265625 C12.6182881 32.26634649 10.41971859 39.64408469 4.9453125 46.6171875 C-1.63628116 53.56316005 -8.19248645 57.41264735 -17.76171875 58.23828125 C-27.78503061 58.49254417 -34.54532634 56.33939498 -42.3125 49.9375 C-49.70436981 42.75516351 -52.44166319 35.60324849 -52.625 25.4375 C-52.53510527 18.31705551 -51.14964725 12.91324733 -47 7 C-46.278125 5.9275 -45.55625 4.855 -44.8125 3.75 C-32.49658021 -8.29223268 -14.13407053 -10.11352847 0 0 Z " fill="#CDAE57" transform="translate(551,680)"/>
<path d="M0 0 C7.70456425 5.25686757 13.19978646 11.6745695 15 21 C15.75665981 30.79333982 15.7185345 38.60505836 10 47 C9.13375 48.36125 9.13375 48.36125 8.25 49.75 C1.25469507 56.74530493 -6.32880689 60.27122183 -16.25 60.375 C-26.04799042 60.2118601 -33.08024373 57.73822004 -40.24609375 50.9921875 C-43.18426221 47.65484693 -45.15834079 44.02629948 -47 40 C-47.6496875 38.6078125 -47.6496875 38.6078125 -48.3125 37.1875 C-50.63055676 26.44014593 -48.60903698 17.44797708 -42.8125 8.25 C-32.23173642 -5.46939987 -14.82787578 -6.69588095 0 0 Z " fill="#CDAE57" transform="translate(550,526)"/>
<path d="M0 0 C0.886875 0.391875 1.77375 0.78375 2.6875 1.1875 C9.92309967 6.85864569 15.08997813 15.371318 16.34375 24.50390625 C16.71822047 34.47418249 13.44784665 43.41942353 7 51 C0.1399607 57.38597154 -6.98190028 60.58122738 -16.3125 60.5 C-17.43072144 60.49359497 -17.43072144 60.49359497 -18.5715332 60.48706055 C-24.97516198 60.2903146 -29.72523069 58.71491535 -35 55 C-35.87011719 54.42378906 -35.87011719 54.42378906 -36.7578125 53.8359375 C-42.23700829 49.78849136 -45.93889276 43.41233363 -48 37 C-48.80017994 27.23156951 -49.11578131 17.51235381 -43.04296875 9.37890625 C-31.56673642 -4.09149251 -16.1569146 -8.2153803 0 0 Z " fill="#CDAE57" transform="translate(743,526)"/>
<path d="M0 0 C6.97400634 4.06052343 12.38050909 10.17050319 14.5625 18 C15.5782036 26.69624877 14.84960151 33.84901248 9.5625 41 C3.86982153 47.02694607 -0.82816978 51.17872182 -9.3269043 51.48242188 C-17.74390606 51.54860339 -23.94403871 50.95338617 -30.4375 45 C-32.73543258 42.48528133 -34.68725243 39.92102128 -36.4375 37 C-36.81261719 36.40960937 -37.18773437 35.81921875 -37.57421875 35.2109375 C-39.96431964 29.08968364 -39.35146145 19.54761134 -37.1875 13.375 C-30.09232044 -0.30856058 -14.51770048 -6.6558073 0 0 Z " fill="#CDAE57" transform="translate(682.4375,565)"/>
<path d="M0 0 C5.18258257 3.29194086 8.77276253 7.92369816 10.73828125 13.76953125 C12.10492706 21.38756682 12.50157376 29.64296776 8.6328125 36.53125 C5.50923042 40.97976382 1.77942128 44.18454717 -2.8671875 46.96875 C-3.43824219 47.34 -4.00929688 47.71125 -4.59765625 48.09375 C-10.94729267 50.5418026 -20.41881635 50.271159 -26.7734375 47.87109375 C-29.06357332 46.40054421 -30.93381141 44.88106535 -32.8671875 42.96875 C-33.44855469 42.40414062 -34.02992188 41.83953125 -34.62890625 41.2578125 C-40.91244678 34.53305483 -42.52412504 28.35177475 -42.2734375 19.25390625 C-41.27040439 11.14284047 -37.22341883 5.36590072 -30.890625 0.375 C-21.18306106 -6.37156953 -10.00896465 -5.52796374 0 0 Z " fill="#CDAE57" transform="translate(604.8671875,567.03125)"/>
<path d="M0 0 C6.41574477 3.81476716 11.43231847 8.79767681 13.734375 16.03125 C14.90427036 26.49345708 14.16298911 33.87395582 7.671875 42.15625 C1.88527693 48.36566839 -4.26974336 51.27643411 -12.765625 51.65625 C-21.23231716 51.27773906 -27.39477353 48.36662933 -33.203125 42.21875 C-38.23806982 35.85381975 -39.86477658 29.94666536 -39.6171875 21.84375 C-38.71046109 14.58993875 -35.97928655 8.68190475 -30.265625 4.03125 C-21.5717568 -2.70505847 -10.44388397 -4.82025414 0 0 Z " fill="#CDAE57" transform="translate(602.265625,645.96875)"/>
<path d="M0 0 C1.010625 0.5775 2.02125 1.155 3.0625 1.75 C4.073125 2.265625 5.08375 2.78125 6.125 3.3125 C11.86810073 8.07805167 15.58630645 14.79290325 16.30078125 22.23046875 C16.55519359 31.50982424 14.0566837 38.35959116 7.77734375 45.24609375 C1.58584039 50.67599989 -5.71639694 52.18847362 -13.73828125 52.08203125 C-22.32596155 51.19075796 -27.8352646 46.43883113 -33.34375 40.12890625 C-38.04232609 33.11559048 -37.88097032 24.87900769 -36.9375 16.75 C-34.40960661 9.64029984 -29.54263414 4.34397005 -22.9375 0.75 C-15.94731352 -2.04032135 -7.12687045 -2.91119931 0 0 Z " fill="#CDAE57" transform="translate(680.9375,645.25)"/>
<path d="M0 0 C5.12994698 3.11736344 9.32945926 7.16250499 11.27734375 12.921875 C12.2159532 19.61784777 12.20098303 26.25916805 8.6875 32.203125 C4.71283584 37.04759101 -0.2527812 40.54220723 -6.54296875 41.23046875 C-13.60718687 41.50602336 -18.25162213 41.03941616 -23.9140625 36.64453125 C-29.06933993 31.73421301 -30.88144545 26.82775253 -31.09765625 19.734375 C-31.00468162 12.12735975 -29.20286466 8.35047015 -23.87890625 3.10546875 C-17.012541 -2.41580629 -8.17183287 -3.23590513 0 0 Z " fill="#CDAE57" transform="translate(639.72265625,610.078125)"/>
<path d="M0 0 C4.96531089 2.55385971 8.46364981 6.235591 12.3125 10.1875 C12.95767578 10.84169922 13.60285156 11.49589844 14.26757812 12.16992188 C15.84970516 13.77548783 17.4269513 15.3855469 19 17 C18.34 17.66 17.68 18.32 17 19 C14.15862758 16.21641519 11.32831845 13.42184273 8.5 10.625 C7.68917969 9.8309375 6.87835938 9.036875 6.04296875 8.21875 C4.89248047 7.07792969 4.89248047 7.07792969 3.71875 5.9140625 C3.00654297 5.2123291 2.29433594 4.5105957 1.56054688 3.78759766 C0 2 0 2 0 0 Z " fill="#A91739" transform="translate(298,298)"/>
<path d="M0 0 C0.99 0.33 1.98 0.66 3 1 C-4.59 8.59 -12.18 16.18 -20 24 C-20.66 23.67 -21.32 23.34 -22 23 C-21.47567383 22.48091064 -20.95134766 21.96182129 -20.41113281 21.42700195 C-18.02142632 19.05816972 -15.6356868 16.6853802 -13.25 14.3125 C-12.425 13.49587891 -11.6 12.67925781 -10.75 11.83789062 C-9.95078125 11.04189453 -9.1515625 10.24589844 -8.328125 9.42578125 C-7.5949707 8.69786377 -6.86181641 7.96994629 -6.10644531 7.2199707 C-3.91984741 4.91552765 -1.94969025 2.50646938 0 0 Z " fill="#B64E43" transform="translate(304,954)"/>
<path d="M0 0 C0.99 0.33 1.98 0.66 3 1 C-0.63 4.63 -4.26 8.26 -8 12 C-8.99 11.67 -9.98 11.34 -11 11 C-7.37 7.37 -3.74 3.74 0 0 Z " fill="#A81438" transform="translate(316,942)"/>
<path d="M0 0 C0 3 0 3 -1.19335938 4.53393555 C-1.73798828 5.062854 -2.28261719 5.59177246 -2.84375 6.13671875 C-3.72353516 7.00200195 -3.72353516 7.00200195 -4.62109375 7.88476562 C-5.24113281 8.47966797 -5.86117187 9.07457031 -6.5 9.6875 C-7.12003906 10.29400391 -7.74007812 10.90050781 -8.37890625 11.52539062 C-9.91264707 13.02373743 -11.45548198 14.51276493 -13 16 C-13.66 15.34 -14.32 14.68 -15 14 C-10.05 9.38 -5.1 4.76 0 0 Z " fill="#AE2E3D" transform="translate(966,293)"/>
<path d="M0 0 C3.53600465 1.91135386 5.78972846 3.62642766 8 7 C5 7 5 7 2.3125 4.625 C0 2 0 2 0 0 Z " fill="#B0353F" transform="translate(298,298)"/>
</svg>
